<svg width="60" height="76" viewBox="0 0 60 76" fill="none" xmlns="http://www.w3.org/2000/svg">
<path d="M53.8345 11.8126C57.0906 11.8126 59.7315 9.20172 59.7315 5.96062C59.7315 2.71953 57.0906 0.108643 53.8345 0.108643C50.5784 0.108643 47.9375 2.71953 47.9375 5.96062C47.9375 9.20172 50.5784 11.8126 53.8345 11.8126Z" fill="#585858"/>
<path d="M2.35352 26.4279L3.40389 26.0677C4.48426 25.6926 5.17448 24.9874 5.17448 23.772C5.17448 22.5565 4.3192 22.4965 3.40389 22.8116L1.07812 23.6069V28.4986L2.35352 28.0634V26.4279ZM2.35352 24.1921L3.20882 23.892C3.59895 23.7569 3.89909 23.832 3.89909 24.2971C3.89909 24.7623 3.61396 25.0024 3.20882 25.1374L2.35352 25.4375V24.1921Z" fill="#585858"/>
<path d="M12.1049 23.9069L13.8156 23.3217L14.1157 24.087L15.4361 23.6218L13.6055 19.3604L12.315 19.8105L10.4844 25.3324L11.7898 24.8822L12.0899 23.9069H12.1049ZM12.9603 20.9659L13.5004 22.4814L12.39 22.8715L12.9452 20.9659H12.9603Z" fill="#585858"/>
<path d="M21.8293 21.4307L24.6352 20.4554V21.6408L25.8507 21.2206V18.9398L25.2955 19.1349V15.3386L21.7693 16.554V17.4243C21.7693 18.5047 21.6043 19.495 21.1241 20.5604L20.6289 20.7254V23.0062L21.8443 22.5861V21.4007L21.8293 21.4307ZM22.9697 17.4093V17.2443L24.0201 16.8841V19.5851L22.4596 20.1252C22.8947 19.0899 22.9847 18.2646 22.9847 17.4093H22.9697Z" fill="#585858"/>
<path d="M34.0602 14.1231V17.2442L35.3057 16.824V11.9324L33.9102 12.4125L32.3046 16.1638V12.9677L31.0742 13.3879V18.2795L32.5146 17.7844L34.0602 14.1231Z" fill="#585858"/>
<path d="M42.9398 14.1833C44.4704 13.6581 45.3557 12.2176 45.3557 10.8072C45.3557 9.39669 44.4854 8.55641 42.9398 9.09659C41.4093 9.62177 40.5391 11.0623 40.5391 12.4727C40.5391 13.8832 41.4093 14.7235 42.9398 14.1833ZM42.9398 10.192C43.7651 9.90686 44.0802 10.5221 44.0802 11.2573C44.0802 11.9926 43.7651 12.8178 42.9398 13.1029C42.1146 13.388 41.7994 12.7728 41.7994 12.0376C41.7994 11.3023 42.1146 10.4771 42.9398 10.192Z" fill="#585858"/>
<path d="M29.1682 46.0694C29.8134 45.7843 30.5637 45.6343 31.329 45.6343C32.5594 45.6343 33.7447 46.0094 34.6751 46.6996C37.7961 48.8904 41.4724 50.0908 44.9986 50.0908C45.2837 50.0908 45.5688 50.0908 45.8539 50.0608C51.8259 49.7307 55.4872 47.9 57.7079 44.1038C58.5332 42.6933 59.4785 40.6226 59.6285 38.3268C58.8333 42.6333 55.5171 45.3192 50.5505 45.6193C50.2654 45.6493 49.9953 45.6493 49.7252 45.6493C47.4894 45.6493 46.0039 44.824 44.8035 44.1638L44.6234 44.0587C43.453 43.4885 41.9826 42.4232 40.4371 41.2978C38.5614 39.9473 36.6107 38.5369 35.1402 37.9817C33.8648 37.4715 32.3793 37.2014 30.8338 37.2014C29.8734 37.2014 28.9282 37.3065 27.9979 37.5165C25.417 38.1017 23.9765 38.987 22.8211 39.8723C21.7257 40.6976 20.0151 42.3482 19.625 42.7683C19.505 42.9033 19.2949 43.1284 19.0848 43.3685C18.1245 44.4489 17.9594 44.5989 17.8994 44.6139C17.7793 44.6139 17.5693 44.4189 17.2542 44.0287C17.1792 43.9387 17.0892 43.8037 17.0141 43.6836C16.9691 43.6086 16.894 43.5036 16.864 43.4585C16.699 43.6086 16.1888 44.3738 16.1438 44.809C16.1138 45.1391 16.2188 45.5743 16.2938 45.8744C16.3388 46.0244 16.3539 46.1294 16.3539 46.1895C16.3539 46.4145 16.1138 46.5796 16.0087 46.5946C15.9337 46.5946 15.8588 46.5196 15.6187 46.2495C15.5437 46.1595 15.4236 46.0394 15.3785 45.9944C15.3035 46.0844 15.1384 46.3845 15.0784 46.6096C15.0184 46.8197 15.0785 47.3599 15.1235 47.5399V47.5849L15.0934 47.6149C14.5233 48.0801 13.4579 48.7103 12.1375 49.0554C11.6573 49.1905 9.99177 49.3705 8.77636 49.5206C8.19116 49.5806 7.6359 49.6556 7.57588 49.6706C7.48585 49.7157 6.49554 50.5709 5.82031 51.1561L5.8803 52.3566L6.21046 52.0565L6.79568 53.1068L7.15579 52.4316L7.23079 52.5216C7.23079 52.5216 7.65098 53.0918 7.93608 53.4519C8.13115 52.8367 8.74632 51.7714 9.67663 51.4713C10.4719 51.1712 13.9681 51.0511 15.1085 51.0061C15.2735 51.0061 15.3786 51.0061 15.3936 51.0061H15.4836V51.0961C15.4836 51.1712 15.4086 51.3962 15.3186 51.6963C15.2885 51.7864 15.2586 51.8914 15.2435 51.9364C15.3636 52.0865 16.1438 52.8967 16.2639 53.0018C16.3689 53.0018 16.744 52.8667 16.804 52.8367C16.819 52.8217 16.864 52.7467 16.8791 52.6416V52.5816H17.0441C17.1491 52.5816 17.2242 52.5816 17.2992 52.5666C17.1792 52.5066 17.0891 52.4166 17.0441 52.3115C16.9841 52.1765 16.9991 52.0264 17.0891 51.8614C17.1792 51.6663 17.5543 51.5763 17.8394 51.5763C18.0795 51.5763 18.3045 51.6363 18.4546 51.7263C18.9197 52.0264 19.0999 52.5066 18.9048 52.9718C18.8298 53.1668 18.6497 53.2869 18.4096 53.2869C18.3796 53.2869 18.3346 53.2869 18.3046 53.2869C18.3346 53.3019 18.3495 53.3169 18.3645 53.3319C18.4996 53.4219 18.5147 53.4519 18.5297 53.4819C18.5297 53.5119 18.5446 53.572 18.5446 53.617C18.5896 53.662 18.6346 53.707 18.6496 53.722C18.7547 53.692 20.2402 52.8967 20.3452 52.8217C20.4503 52.7467 20.7204 52.4766 20.9304 52.1315C20.7804 52.0114 20.4203 51.6813 20.4503 51.1411C20.4803 50.5109 21.0354 50.0908 21.7407 50.1808C22.0408 50.2258 22.2959 50.3609 22.446 50.601C22.626 50.856 22.671 51.2162 22.581 51.5913C22.4309 52.2065 19.535 55.4926 17.0141 56.738C16.0388 57.3082 14.9434 57.5933 13.758 57.6083C13.713 57.6083 13.6829 57.6083 13.6679 57.6083C13.5779 57.6533 12.6777 58.4036 12.1225 58.8838L12.0625 59.9041L12.3025 59.7841L12.7227 60.9545L13.0077 60.5343L13.9081 61.4946L14.1031 60.6844L15.2435 61.5397C15.2586 61.3896 15.3036 61.1045 15.3186 60.8644V60.8344L15.7537 60.4443C16.3239 59.9341 17.2842 59.0788 17.4192 58.9738C17.4792 58.9138 17.7343 58.7787 18.2895 58.4786C19.2649 57.9384 20.9004 57.0381 22.4009 56.0478C25.3419 54.0971 27.2926 52.5966 27.4427 52.2065C27.2026 51.9964 25.8972 50.826 25.9272 49.5056C25.9722 48.1101 27.6377 46.8947 29.1832 46.2045L29.1682 46.0694ZM16.639 49.9107L16.3839 50.0158L16.789 48.2151L17.3742 48.4252L16.639 49.9107Z" fill="#585858"/>
<path d="M42.2956 68.6067C42.1006 68.6067 41.9656 68.6967 41.8755 68.8618C41.8455 68.9218 41.8005 69.0118 41.7705 69.1019C41.7405 69.1919 41.7105 69.2969 41.6805 69.402C41.6505 69.507 41.6354 69.612 41.6204 69.7171C41.6204 69.8221 41.6055 69.9121 41.6055 69.9722C41.6055 70.3023 41.7405 70.4673 42.0256 70.4673C42.2206 70.4673 42.3556 70.3773 42.4607 70.1822C42.5357 70.0322 42.6107 69.8521 42.6558 69.642C42.7158 69.432 42.7458 69.2519 42.7458 69.0869C42.7458 68.9218 42.7158 68.8018 42.6558 68.7267C42.5957 68.6517 42.4907 68.6217 42.3257 68.6217L42.2956 68.6067Z" fill="#585858"/>
<path d="M22.4462 68.8469H22.071L21.7109 70.6025H22.1011C22.6563 70.6025 22.9864 70.2424 23.1064 69.7172C23.2264 69.102 23.0464 68.8469 22.4612 68.8469H22.4462Z" fill="#585858"/>
<path d="M47.7871 68.6067C47.682 68.6067 47.607 68.6367 47.5319 68.6817C47.4569 68.7267 47.3969 68.7868 47.3519 68.8618C47.3069 68.9368 47.2619 69.0118 47.2319 69.1019C47.2019 69.1919 47.1718 69.2669 47.1568 69.3419C47.0668 69.612 47.0067 69.8521 46.9617 70.0922C46.9167 70.3173 46.8867 70.4973 46.8867 70.6174C46.8867 70.7824 46.9318 70.9175 47.0068 71.0225C47.0818 71.1125 47.2018 71.1726 47.3369 71.1726C47.5169 71.1726 47.652 71.0975 47.742 70.9625C47.832 70.8274 47.8921 70.6774 47.9521 70.5273C47.9821 70.4073 48.0271 70.2873 48.0572 70.1522C48.0872 70.0172 48.1172 69.8821 48.1472 69.7471C48.1772 69.627 48.1922 69.492 48.2072 69.387C48.2072 69.2669 48.2222 69.1769 48.2222 69.1019C48.2222 68.7868 48.0722 68.6217 47.7721 68.6217L47.7871 68.6067Z" fill="#585858"/>
<path d="M41.6684 71.563C41.4283 71.563 41.2632 71.668 41.1582 71.8931C41.1132 71.9831 41.0682 72.0882 41.0382 72.2232C40.9932 72.3433 40.9632 72.4783 40.9332 72.6283C40.9032 72.7634 40.8732 72.8984 40.8582 73.0335C40.8432 73.1685 40.8281 73.2886 40.8281 73.3786C40.8281 73.5437 40.8731 73.6787 40.9631 73.7687C41.0531 73.8738 41.1733 73.9188 41.3233 73.9188C41.5334 73.9188 41.6834 73.8288 41.8034 73.6487C41.8484 73.5587 41.8935 73.4536 41.9535 73.3336C41.9985 73.2135 42.0436 73.0635 42.0736 72.9285C42.1036 72.7784 42.1336 72.6434 42.1486 72.4933C42.1636 72.3583 42.1785 72.2232 42.1785 72.1182C42.1785 71.9531 42.1486 71.8181 42.0736 71.713C41.9985 71.608 41.8784 71.563 41.7134 71.563H41.6684Z" fill="#585858"/>
<path d="M54.8865 72.1184C54.8565 72.2685 54.8115 72.4035 54.7965 72.5535C54.7514 72.7786 54.7214 72.9587 54.7064 73.0637C54.7064 73.1838 54.6914 73.2738 54.6914 73.3488C54.6914 73.6789 54.8414 73.844 55.1265 73.844C55.2466 73.844 55.3516 73.814 55.4417 73.739C55.5317 73.6639 55.5917 73.5739 55.6518 73.4689C55.7118 73.3638 55.7417 73.2438 55.7867 73.1087C55.8168 72.9737 55.8468 72.8386 55.8768 72.7186C55.9218 72.4935 55.9668 72.3135 55.9818 72.1784C55.9968 72.0434 56.0119 71.9233 56.0119 71.8183C56.0119 71.6833 55.9668 71.5632 55.8918 71.4732C55.8168 71.3832 55.6968 71.3381 55.5617 71.3381C55.4417 71.3381 55.3216 71.3681 55.2466 71.4432C55.1566 71.5182 55.0965 71.6082 55.0365 71.7133C54.9765 71.8333 54.9465 71.9533 54.9015 72.1034L54.8865 72.1184Z" fill="#585858"/>
<path d="M0.867188 66.3259V75.9742H59.7772V66.3259H0.867188ZM7.1393 71.8328H4.81353L4.49839 73.3183H7.06429L6.73413 74.9088H2.21768L3.76316 67.4513H8.17466L7.84459 69.0419H5.36871L5.11365 70.3173H7.4244L7.10926 71.8478L7.1393 71.8328ZM10.5905 74.9088L10.2454 70.3023H10.2303L9.28502 74.9088H7.46946L9.01494 67.4513H11.1907L11.4758 72.0429H11.4908L12.4511 67.4513H14.2667L12.7212 74.9088H10.5905ZM18.5431 71.8328H16.2174L15.9023 73.3183H18.4681L18.1381 74.9088H13.6215L15.167 67.4513H19.5785L19.2484 69.0419H16.7725L16.5175 70.3173H18.8282L18.5132 71.8478L18.5431 71.8328ZM25.0854 69.432C24.8903 70.4373 24.3651 71.0675 23.4498 71.2026C24.3651 71.3076 24.5302 71.8928 24.3201 72.8982L24.2001 73.5284C24.11 73.9185 24.02 74.4137 24.08 74.5637C24.11 74.6538 24.14 74.7138 24.2601 74.7888V74.8938H22.1744C22.1444 74.8038 22.1294 74.6838 22.1294 74.5487C22.1294 74.1586 22.2345 73.7084 22.2795 73.4684L22.3844 72.9732C22.5645 72.1329 22.4295 71.9078 21.9643 71.9078H21.4541L20.8389 74.8938H18.9033L20.4488 67.4363H23.4949C24.9654 67.4363 25.3705 68.2766 25.1304 69.417L25.0854 69.432ZM30.9373 69.8071H29.0617C29.1367 69.432 29.1667 69.1319 29.1367 68.9368C29.1067 68.7117 28.9867 68.6067 28.7616 68.6067C28.1314 68.6067 27.9514 69.1469 27.5312 71.1576C27.1111 73.1682 27.066 73.7234 27.6512 73.7234C28.0564 73.7234 28.3565 73.4533 28.6266 72.1629H27.9363L28.2064 70.8425H30.7123L29.872 74.8938H28.5516L28.6416 74.2336H28.6266C28.2365 74.8638 27.5162 75.0439 26.856 75.0439C24.8753 75.0439 25.0103 73.6484 25.5055 71.1726C26.0007 68.6817 26.796 67.3013 29.0917 67.3013C30.4872 67.3013 31.2974 68.0065 30.9223 69.8071H30.9373ZM34.5086 71.9678L33.9084 74.9088H31.9727L32.5729 71.9678L31.6126 67.4513H33.7433L33.9233 70.0472H33.9384L35.2138 67.4513H37.3445L34.5086 71.9678ZM44.2019 70.3023C44.0818 70.4823 43.9168 70.6474 43.7217 70.7524C43.5266 70.8725 43.3015 70.9325 43.0314 70.9475C43.7217 71.0825 44.0668 71.5477 44.0668 72.313C44.0668 72.6131 44.0218 72.9132 43.9318 73.2433C43.8418 73.5584 43.7217 73.8435 43.5567 74.0836C43.4366 74.2936 43.2716 74.4587 43.1065 74.5787C42.9265 74.6988 42.7463 74.8038 42.5513 74.8938C42.3562 74.9689 42.1461 75.0289 41.9211 75.0589C41.696 75.0889 41.4709 75.1039 41.2458 75.1039C40.9607 75.1039 40.6756 75.0739 40.3905 75.0139C40.1054 74.9539 39.8654 74.8638 39.6253 74.7288C39.4003 74.5937 39.2201 74.4137 39.0851 74.2036C38.95 73.9785 38.8751 73.6934 38.8751 73.3633C38.8751 73.0782 38.9051 72.7931 38.9651 72.523C39.0251 72.2379 39.1301 71.9979 39.2651 71.7578C39.4002 71.5327 39.5803 71.3526 39.8054 71.2026C40.0305 71.0525 40.3005 70.9775 40.6156 70.9475C40.3305 70.8275 40.1205 70.6774 39.9855 70.5123C39.8504 70.3323 39.7754 70.0772 39.7754 69.7471C39.7754 69.462 39.8354 69.1619 39.9404 68.8618C40.0454 68.5617 40.1805 68.3066 40.3606 68.1115C40.7507 67.6464 41.411 67.4213 42.3563 67.4213C43.0915 67.4213 43.6467 67.5563 44.0218 67.8114C44.3969 68.0665 44.592 68.4567 44.592 68.9668C44.592 69.2219 44.562 69.462 44.502 69.6871C44.442 69.9121 44.3369 70.1372 44.2169 70.3173L44.2019 70.3023ZM49.2586 73.4533C49.1235 73.7985 48.9585 74.0986 48.7334 74.3386C48.5084 74.5787 48.2382 74.7738 47.8931 74.9088C47.563 75.0439 47.1278 75.1039 46.6177 75.1039C45.2072 75.1039 44.502 74.5487 44.502 73.4233V73.3183C44.502 73.3183 44.502 73.2283 44.502 73.1532H46.3776C46.3776 73.1532 46.3476 73.2733 46.3476 73.3033C46.3476 73.3333 46.3476 73.3783 46.3476 73.4383C46.3476 73.7384 46.4826 73.8885 46.7677 73.8885C46.8577 73.8885 46.9328 73.8735 46.9928 73.8435C47.0528 73.8135 47.1128 73.7534 47.1729 73.6784C47.2329 73.6034 47.2779 73.4834 47.3379 73.3483C47.3979 73.2133 47.443 73.0182 47.503 72.7931L47.623 72.343C47.623 72.343 47.6531 72.2079 47.6831 72.1479C47.6981 72.0879 47.7431 71.9979 47.7731 71.8778C47.6681 71.9828 47.578 72.0729 47.488 72.1479C47.398 72.2229 47.3079 72.2829 47.2029 72.328C47.0979 72.373 46.9928 72.418 46.8727 72.433C46.7527 72.448 46.6177 72.463 46.4677 72.463C45.9575 72.463 45.5673 72.313 45.3122 71.9979C45.0571 71.6827 44.9371 71.2776 44.9371 70.7674C44.9371 70.3473 44.9971 69.9271 45.1172 69.492C45.2372 69.0569 45.4023 68.6967 45.6124 68.3666C46.0475 67.6914 46.7677 67.3613 47.803 67.3613C49.3186 67.3613 50.0838 68.0065 50.0838 69.3119C50.0838 70.0022 49.9188 70.9925 49.5886 72.2679C49.4836 72.7031 49.3636 73.0932 49.2285 73.4533H49.2586ZM51.5543 74.9238H49.7987L50.2489 72.8531H52.0045L51.5543 74.9238ZM58.4417 69.1319C58.4417 69.1319 58.4417 69.2219 58.4417 69.2969H56.5811C56.5811 69.2069 56.5961 69.1469 56.5961 69.1169V69.0118C56.5961 68.7267 56.446 68.5917 56.1609 68.5917C56.0408 68.5917 55.9359 68.6217 55.8458 68.6817C55.7558 68.7417 55.6808 68.8318 55.6357 68.9518C55.5757 69.0719 55.5157 69.2219 55.4707 69.402C55.4107 69.582 55.3656 69.7921 55.3056 70.0172L55.1556 70.6024C55.3206 70.3773 55.5007 70.1972 55.7258 70.0922C55.9358 69.9872 56.206 69.9272 56.5061 69.9272C57.0012 69.9272 57.3913 70.0622 57.6464 70.3173C57.9015 70.5724 58.0365 70.9625 58.0365 71.4727C58.0365 71.6227 58.0366 71.7878 58.0066 71.9528C57.9916 72.1329 57.9466 72.313 57.9165 72.493C57.8715 72.6731 57.8265 72.8531 57.7664 73.0332C57.7064 73.2133 57.6614 73.3783 57.5864 73.5284C57.3613 74.0686 57.0612 74.4587 56.6711 74.6988C56.296 74.9388 55.7707 75.0439 55.1255 75.0439C53.58 75.0439 52.7998 74.3987 52.7998 73.0932C52.7998 72.9432 52.7998 72.7481 52.8298 72.523C52.8598 72.298 52.8898 72.0579 52.9348 71.8028C52.9799 71.5477 53.0249 71.2776 53.0999 70.9925C53.1599 70.7074 53.2349 70.4073 53.31 70.1222C53.43 69.6871 53.55 69.2969 53.6701 68.9518C53.8051 68.6067 53.9701 68.3066 54.1802 68.0665C54.3903 67.8264 54.6604 67.6464 54.9905 67.5113C55.3206 67.3763 55.7408 67.3163 56.236 67.3163C56.9862 67.3163 57.5264 67.4513 57.8865 67.7214C58.2466 67.9915 58.4116 68.4116 58.4116 68.9818V69.1019L58.4417 69.1319Z" fill="#585858"/>
<path d="M29.1682 46.0694C29.8134 45.7843 30.5637 45.6343 31.329 45.6343C32.5594 45.6343 33.7447 46.0094 34.6751 46.6996C37.7961 48.8904 41.4724 50.0908 44.9986 50.0908C45.2837 50.0908 45.5688 50.0908 45.8539 50.0608C51.8259 49.7307 55.4872 47.9 57.7079 44.1038C58.5332 42.6933 59.4785 40.6226 59.6285 38.3268C58.8333 42.6333 55.5171 45.3192 50.5505 45.6193C50.2654 45.6493 49.9953 45.6493 49.7252 45.6493C47.4894 45.6493 46.0039 44.824 44.8035 44.1638L44.6234 44.0587C43.453 43.4885 41.9826 42.4232 40.4371 41.2978C38.5614 39.9473 36.6107 38.5369 35.1402 37.9817C33.8648 37.4715 32.3793 37.2014 30.8338 37.2014C29.8734 37.2014 28.9282 37.3065 27.9979 37.5165C25.417 38.1017 23.9765 38.987 22.8211 39.8723C21.7257 40.6976 20.0151 42.3482 19.625 42.7683C19.505 42.9033 19.2949 43.1284 19.0848 43.3685C18.1245 44.4489 17.9594 44.5989 17.8994 44.6139C17.7793 44.6139 17.5693 44.4189 17.2542 44.0287C17.1792 43.9387 17.0892 43.8037 17.0141 43.6836C16.9691 43.6086 16.894 43.5036 16.864 43.4585C16.699 43.6086 16.1888 44.3738 16.1438 44.809C16.1138 45.1391 16.2188 45.5743 16.2938 45.8744C16.3388 46.0244 16.3539 46.1294 16.3539 46.1895C16.3539 46.4145 16.1138 46.5796 16.0087 46.5946C15.9337 46.5946 15.8588 46.5196 15.6187 46.2495C15.5437 46.1595 15.4236 46.0394 15.3785 45.9944C15.3035 46.0844 15.1384 46.3845 15.0784 46.6096C15.0184 46.8197 15.0785 47.3599 15.1235 47.5399V47.5849L15.0934 47.6149C14.5233 48.0801 13.4579 48.7103 12.1375 49.0554C11.6573 49.1905 9.99177 49.3705 8.77636 49.5206C8.19116 49.5806 7.6359 49.6556 7.57588 49.6706C7.48585 49.7157 6.49554 50.5709 5.82031 51.1561L5.8803 52.3566L6.21046 52.0565L6.79568 53.1068L7.15579 52.4316L7.23079 52.5216C7.23079 52.5216 7.65098 53.0918 7.93608 53.4519C8.13115 52.8367 8.74632 51.7714 9.67663 51.4713C10.4719 51.1712 13.9681 51.0511 15.1085 51.0061C15.2735 51.0061 15.3786 51.0061 15.3936 51.0061H15.4836V51.0961C15.4836 51.1712 15.4086 51.3962 15.3186 51.6963C15.2885 51.7864 15.2586 51.8914 15.2435 51.9364C15.3636 52.0865 16.1438 52.8967 16.2639 53.0018C16.3689 53.0018 16.744 52.8667 16.804 52.8367C16.819 52.8217 16.864 52.7467 16.8791 52.6416V52.5816H17.0441C17.1491 52.5816 17.2242 52.5816 17.2992 52.5666C17.1792 52.5066 17.0891 52.4166 17.0441 52.3115C16.9841 52.1765 16.9991 52.0264 17.0891 51.8614C17.1792 51.6663 17.5543 51.5763 17.8394 51.5763C18.0795 51.5763 18.3045 51.6363 18.4546 51.7263C18.9197 52.0264 19.0999 52.5066 18.9048 52.9718C18.8298 53.1668 18.6497 53.2869 18.4096 53.2869C18.3796 53.2869 18.3346 53.2869 18.3046 53.2869C18.3346 53.3019 18.3495 53.3169 18.3645 53.3319C18.4996 53.4219 18.5147 53.4519 18.5297 53.4819C18.5297 53.5119 18.5446 53.572 18.5446 53.617C18.5896 53.662 18.6346 53.707 18.6496 53.722C18.7547 53.692 20.2402 52.8967 20.3452 52.8217C20.4503 52.7467 20.7204 52.4766 20.9304 52.1315C20.7804 52.0114 20.4203 51.6813 20.4503 51.1411C20.4803 50.5109 21.0354 50.0908 21.7407 50.1808C22.0408 50.2258 22.2959 50.3609 22.446 50.601C22.626 50.856 22.671 51.2162 22.581 51.5913C22.4309 52.2065 19.535 55.4926 17.0141 56.738C16.0388 57.3082 14.9434 57.5933 13.758 57.6083C13.713 57.6083 13.6829 57.6083 13.6679 57.6083C13.5779 57.6533 12.6777 58.4036 12.1225 58.8838L12.0625 59.9041L12.3025 59.7841L12.7227 60.9545L13.0077 60.5343L13.9081 61.4946L14.1031 60.6844L15.2435 61.5397C15.2586 61.3896 15.3036 61.1045 15.3186 60.8644V60.8344L15.7537 60.4443C16.3239 59.9341 17.2842 59.0788 17.4192 58.9738C17.4792 58.9138 17.7343 58.7787 18.2895 58.4786C19.2649 57.9384 20.9004 57.0381 22.4009 56.0478C25.3419 54.0971 27.2926 52.5966 27.4427 52.2065C27.2026 51.9964 25.8972 50.826 25.9272 49.5056C25.9722 48.1101 27.6377 46.8947 29.1832 46.2045L29.1682 46.0694ZM16.639 49.9107L16.3839 50.0158L16.789 48.2151L17.3742 48.4252L16.639 49.9107Z" fill="#585858"/>
<path d="M59.7173 33.7198C59.7173 28.1229 59.7473 11.9324 59.7473 11.9324L45.9276 16.689V22.3459L49.7989 20.9804C49.7989 20.9804 49.8289 35.8655 49.7989 36.6457C49.3788 41.1773 44.6072 39.7368 43.0466 38.5814C42.5665 38.2213 38.9952 35.7454 38.9952 35.7454C42.4614 34.53 47.8933 30.1185 45.2074 24.1165C41.8462 18.0094 35.9192 20.0051 35.9192 20.0051L19.6687 25.647V31.1989L22.0245 30.3736V38.1162L11.551 28.3629L0.777344 32.0992V37.6661L4.03342 36.4807V52.3261L0.822311 53.4514V59.2884L13.0815 55.042V51.4558C10.8758 51.5758 10.0505 51.7108 9.78039 51.8009C9.00013 52.056 8.45998 52.9863 8.30992 53.5115L8.06979 54.2917C8.06979 54.2917 7.30458 53.3164 7.18454 53.1513L6.76436 53.9316L6.04414 52.6712L5.4439 53.1964L5.33886 50.9006L5.50389 50.7655C6.61427 49.8052 7.22951 49.295 7.31954 49.235C7.48459 49.175 7.64963 49.145 8.60995 49.0399C9.84037 48.9049 11.521 48.7098 11.9712 48.5898C12.3763 48.4848 12.7364 48.3497 13.0815 48.1997V41.9275L15.7674 44.3584C15.9475 43.8332 16.3526 43.263 16.5177 43.1129L16.8478 42.7828L17.1479 43.1429C17.1479 43.1429 17.2679 43.308 17.3279 43.398C17.4029 43.5031 17.478 43.6231 17.538 43.6981C17.688 43.8782 17.7781 43.9832 17.8531 44.0433C17.9882 43.8632 18.3783 43.428 18.7384 43.0229L19.2936 42.4077C19.6837 41.9876 21.4244 40.307 22.5497 39.4517C23.7501 38.5514 25.2206 37.6211 27.8915 37.0209C28.8519 36.8108 29.8422 36.6908 30.8175 36.6908C32.4081 36.6908 33.9536 36.9759 35.274 37.501C36.7895 38.0712 38.7702 39.4967 40.6609 40.8772C42.1914 41.9876 43.6469 43.0379 44.7873 43.5931L44.9824 43.6981C46.1377 44.3434 47.5632 45.1386 49.6939 45.1386C49.949 45.1386 50.2191 45.1386 50.4892 45.1086C55.2458 44.8235 58.4269 42.2877 59.1921 38.1613L59.5073 36.1206C59.6273 35.2953 59.7023 34.47 59.7023 33.6297L59.7173 33.7198ZM30.8775 27.5377C30.8775 27.5377 33.2333 26.7124 34.3887 26.3072C35.5441 25.9171 36.5495 27.0425 36.6095 28.1529C36.6695 29.1432 36.8495 30.5837 35.424 31.2439C34.2686 31.634 30.8775 32.8945 30.8775 32.8945V27.5227V27.5377Z" fill="#585858"/>
<path d="M29.1682 46.0694C29.8134 45.7843 30.5637 45.6343 31.329 45.6343C32.5594 45.6343 33.7447 46.0094 34.6751 46.6996C37.7961 48.8904 41.4724 50.0908 44.9986 50.0908C45.2837 50.0908 45.5688 50.0908 45.8539 50.0608C51.8259 49.7307 55.4872 47.9 57.7079 44.1038C58.5332 42.6933 59.4785 40.6226 59.6285 38.3268C58.8333 42.6333 55.5171 45.3192 50.5505 45.6193C50.2654 45.6493 49.9953 45.6493 49.7252 45.6493C47.4894 45.6493 46.0039 44.824 44.8035 44.1638L44.6234 44.0587C43.453 43.4885 41.9826 42.4232 40.4371 41.2978C38.5614 39.9473 36.6107 38.5369 35.1402 37.9817C33.8648 37.4715 32.3793 37.2014 30.8338 37.2014C29.8734 37.2014 28.9282 37.3065 27.9979 37.5165C25.417 38.1017 23.9765 38.987 22.8211 39.8723C21.7257 40.6976 20.0151 42.3482 19.625 42.7683C19.505 42.9033 19.2949 43.1284 19.0848 43.3685C18.1245 44.4489 17.9594 44.5989 17.8994 44.6139C17.7793 44.6139 17.5693 44.4189 17.2542 44.0287C17.1792 43.9387 17.0892 43.8037 17.0141 43.6836C16.9691 43.6086 16.894 43.5036 16.864 43.4585C16.699 43.6086 16.1888 44.3738 16.1438 44.809C16.1138 45.1391 16.2188 45.5743 16.2938 45.8744C16.3388 46.0244 16.3539 46.1294 16.3539 46.1895C16.3539 46.4145 16.1138 46.5796 16.0087 46.5946C15.9337 46.5946 15.8588 46.5196 15.6187 46.2495C15.5437 46.1595 15.4236 46.0394 15.3785 45.9944C15.3035 46.0844 15.1384 46.3845 15.0784 46.6096C15.0184 46.8197 15.0785 47.3599 15.1235 47.5399V47.5849L15.0934 47.6149C14.5233 48.0801 13.4579 48.7103 12.1375 49.0554C11.6573 49.1905 9.99177 49.3705 8.77636 49.5206C8.19116 49.5806 7.6359 49.6556 7.57588 49.6706C7.48585 49.7157 6.49554 50.5709 5.82031 51.1561L5.8803 52.3566L6.21046 52.0565L6.79568 53.1068L7.15579 52.4316L7.23079 52.5216C7.23079 52.5216 7.65098 53.0918 7.93608 53.4519C8.13115 52.8367 8.74632 51.7714 9.67663 51.4713C10.4719 51.1712 13.9681 51.0511 15.1085 51.0061C15.2735 51.0061 15.3786 51.0061 15.3936 51.0061H15.4836V51.0961C15.4836 51.1712 15.4086 51.3962 15.3186 51.6963C15.2885 51.7864 15.2586 51.8914 15.2435 51.9364C15.3636 52.0865 16.1438 52.8967 16.2639 53.0018C16.3689 53.0018 16.744 52.8667 16.804 52.8367C16.819 52.8217 16.864 52.7467 16.8791 52.6416V52.5816H17.0441C17.1491 52.5816 17.2242 52.5816 17.2992 52.5666C17.1792 52.5066 17.0891 52.4166 17.0441 52.3115C16.9841 52.1765 16.9991 52.0264 17.0891 51.8614C17.1792 51.6663 17.5543 51.5763 17.8394 51.5763C18.0795 51.5763 18.3045 51.6363 18.4546 51.7263C18.9197 52.0264 19.0999 52.5066 18.9048 52.9718C18.8298 53.1668 18.6497 53.2869 18.4096 53.2869C18.3796 53.2869 18.3346 53.2869 18.3046 53.2869C18.3346 53.3019 18.3495 53.3169 18.3645 53.3319C18.4996 53.4219 18.5147 53.4519 18.5297 53.4819C18.5297 53.5119 18.5446 53.572 18.5446 53.617C18.5896 53.662 18.6346 53.707 18.6496 53.722C18.7547 53.692 20.2402 52.8967 20.3452 52.8217C20.4503 52.7467 20.7204 52.4766 20.9304 52.1315C20.7804 52.0114 20.4203 51.6813 20.4503 51.1411C20.4803 50.5109 21.0354 50.0908 21.7407 50.1808C22.0408 50.2258 22.2959 50.3609 22.446 50.601C22.626 50.856 22.671 51.2162 22.581 51.5913C22.4309 52.2065 19.535 55.4926 17.0141 56.738C16.0388 57.3082 14.9434 57.5933 13.758 57.6083C13.713 57.6083 13.6829 57.6083 13.6679 57.6083C13.5779 57.6533 12.6777 58.4036 12.1225 58.8838L12.0625 59.9041L12.3025 59.7841L12.7227 60.9545L13.0077 60.5343L13.9081 61.4946L14.1031 60.6844L15.2435 61.5397C15.2586 61.3896 15.3036 61.1045 15.3186 60.8644V60.8344L15.7537 60.4443C16.3239 59.9341 17.2842 59.0788 17.4192 58.9738C17.4792 58.9138 17.7343 58.7787 18.2895 58.4786C19.2649 57.9384 20.9004 57.0381 22.4009 56.0478C25.3419 54.0971 27.2926 52.5966 27.4427 52.2065C27.2026 51.9964 25.8972 50.826 25.9272 49.5056C25.9722 48.1101 27.6377 46.8947 29.1832 46.2045L29.1682 46.0694ZM16.639 49.9107L16.3839 50.0158L16.789 48.2151L17.3742 48.4252L16.639 49.9107Z" fill="#585858"/>
</svg>
