<svg width="97" height="58" viewBox="0 0 97 58" fill="none" xmlns="http://www.w3.org/2000/svg">
<path d="M91.185 0.130371H6.38664C3.29477 0.130371 0.777344 2.64779 0.777344 5.73966V44.1768C0.777344 47.2687 3.29477 49.7861 6.38664 49.7861H91.1681C94.2599 49.7861 96.7773 47.2687 96.7773 44.1768V5.73966C96.7773 2.64779 94.2599 0.130371 91.1681 0.130371H91.185ZM95.696 44.1768C95.696 46.6605 93.6686 48.6879 91.185 48.6879H6.38664C3.903 48.6879 1.87554 46.6605 1.87554 44.1768V5.73966C1.87554 3.25603 3.903 1.22857 6.38664 1.22857H91.1681C93.6517 1.22857 95.6791 3.25603 95.6791 5.73966V44.1768H95.696Z" fill="#585858"/>
<path d="M14.4458 22.3984C10.7457 22.3984 7.73828 19.4754 7.73828 15.8767C7.73828 12.278 10.7457 9.35507 14.4458 9.35507C16.355 9.35507 18.0783 10.1323 19.2948 11.3825L17.487 13.3255C16.7267 12.4638 15.6116 11.9232 14.4458 11.9232C12.3507 11.9232 10.6443 13.6972 10.6443 15.8936C10.6443 18.09 12.3507 19.864 14.4458 19.864C15.6791 19.864 16.8449 19.2558 17.6052 18.3097V18.3772L19.4975 20.1682C18.2642 21.5367 16.4563 22.4152 14.4289 22.4152L14.4458 22.3984ZM35.0413 16.6708C35.0413 20.1344 32.1691 22.9221 28.6042 22.9221C25.0392 22.9221 22.167 20.1175 22.167 16.6708C22.167 13.2241 25.0392 10.4195 28.6042 10.4195C32.1691 10.4195 35.0413 13.2241 35.0413 16.6708ZM32.2536 16.6708C32.2536 14.5758 30.6147 12.8693 28.6042 12.8693C26.5936 12.8693 24.9548 14.5758 24.9548 16.6708C24.9548 18.7658 26.5936 20.4723 28.6042 20.4723C30.6147 20.4723 32.2536 18.7658 32.2536 16.6708ZM86.657 9.5578L83.5989 15.184L80.5915 9.5578H77.3476L82.1966 17.769V22.1787H84.9674V17.7014L89.8164 9.54091H86.657V9.5578ZM21.3222 18.8165C21.4405 18.8165 21.5419 18.8165 21.6432 18.7827C21.5419 18.4617 21.4574 18.1407 21.4067 17.8028C21.4067 17.7521 21.4067 17.6845 21.3898 17.6338C21.3898 17.5325 21.356 17.4142 21.356 17.3128C21.356 17.2621 21.356 17.2114 21.356 17.1608C21.356 17.0087 21.3391 16.8397 21.3391 16.6877C21.3391 16.5187 21.3391 16.3498 21.356 16.1808C21.356 16.147 21.356 16.1132 21.356 16.0795C21.356 15.9105 21.3898 15.7416 21.4236 15.5726C21.4574 15.4036 21.4912 15.2347 21.525 15.0657C21.525 15.0657 21.525 15.0488 21.525 15.0319C21.5757 14.863 21.6264 14.6771 21.677 14.5082C22.6232 11.6697 25.3771 9.5916 28.6042 9.5916C31.8312 9.5916 34.5683 11.6528 35.5313 14.5082C35.582 14.6771 35.6327 14.8461 35.6834 15.0319C35.6834 15.0319 35.6834 15.0488 35.6834 15.0657C35.7172 15.2347 35.7679 15.4036 35.7847 15.5726C35.8185 15.7416 35.8354 15.9105 35.8523 16.0795C35.8523 16.1132 35.8523 16.147 35.8523 16.1808C35.8523 16.3498 35.8692 16.5187 35.8692 16.6877C35.8692 16.8566 35.8692 17.0087 35.8523 17.1608C35.8523 17.2114 35.8523 17.2621 35.8523 17.3128C35.8523 17.4142 35.8354 17.5325 35.8185 17.6338C35.8185 17.6845 35.8185 17.7521 35.8016 17.8028C35.7509 18.1407 35.6665 18.4617 35.5651 18.7827C35.6665 18.7996 35.7847 18.8165 35.8861 18.8165C36.8154 18.8165 37.5588 18.0731 37.5588 17.1439V16.1133C37.5588 15.353 37.0519 14.7109 36.3423 14.5082C35.3793 11.2305 32.2705 8.8313 28.6211 8.8313C24.9716 8.8313 21.8629 11.2305 20.8998 14.5082C20.1902 14.7109 19.6834 15.353 19.6834 16.1133V17.1439C19.6834 18.0731 20.4268 18.8165 21.356 18.8165H21.3222ZM59.8439 40.3751H62.6147V27.7542H59.8439V40.3751ZM70.6232 22.1956H65.7066V9.5747H70.6232C74.5936 9.5747 77.3307 12.2949 77.3307 15.8936C77.3307 19.4923 74.5936 22.2125 70.6232 22.2125V22.1956ZM68.4775 19.6951H70.6232C72.8872 19.6951 74.4247 18.1576 74.4247 15.8936C74.4247 13.6296 72.8872 12.0921 70.6232 12.0921H68.4775V19.6951ZM48.9463 22.2294H51.7003V9.60849H48.7098L45.3983 14.9475L42.0867 9.60849H39.0963V22.2294H41.8164V14.0351L45.3645 19.4248L48.9463 13.9844V22.2294ZM56.9379 17.0763H62.3275V14.6095H56.9379V12.0414H63.1385V9.5747H54.1839V22.1956H63.2399V19.7289H56.9548V17.0763H56.9379ZM57.5292 34.0562C57.5292 37.6043 54.7921 40.3751 50.8217 40.3751H45.9051V27.7542H50.8217C54.7921 27.7542 57.5292 30.4744 57.5292 34.0731V34.0562ZM54.6232 34.0562C54.6232 31.826 53.0857 30.2547 50.8217 30.2547H48.676V37.8577H50.8217C53.0857 37.8577 54.6232 36.3202 54.6232 34.0562ZM26.9991 35.864L30.091 40.3751H26.847L24.11 36.3371H21.9643V40.3751H19.1934V27.7542H24.9717C26.5767 27.7542 27.827 28.2104 28.6549 29.0383C29.3645 29.7479 29.7362 30.7278 29.7362 31.9612C29.7362 34.0055 28.638 35.2727 27.0329 35.8809L26.9991 35.864ZM26.8977 32.0626C26.8977 30.8799 26.0699 30.2547 24.7182 30.2547H21.9643V33.8873H24.7858C26.1374 33.8873 26.9146 33.1608 26.9146 32.0626H26.8977ZM78.3613 34.0562C78.3613 37.6381 75.5229 40.5779 71.6369 40.5779C67.751 40.5779 64.9463 37.6719 64.9463 34.0562C64.9463 30.4406 67.7847 27.5346 71.6707 27.5346C75.5567 27.5346 78.3613 30.4406 78.3613 34.0562ZM75.4553 34.0562C75.4553 31.8936 73.8671 30.0858 71.6369 30.0858C69.4067 30.0858 67.8523 31.8598 67.8523 34.0562C67.8523 36.2526 69.4405 38.0267 71.6707 38.0267C73.9009 38.0267 75.4553 36.2526 75.4553 34.0562ZM39.0963 27.6528L44.5028 40.3751H41.5968L40.4479 37.5367H35.1089L33.96 40.3751H31.1216L36.5281 27.6528H39.0963ZM39.4511 35.0868L37.7784 30.9981L36.1058 35.0868H39.468H39.4511Z" fill="#585858"/>
<path d="M87.4791 43.1784L48.8357 46.1587C47.6169 46.2527 46.7051 47.3169 46.7991 48.5356L47.3551 55.7455C47.4491 56.9642 48.5133 57.876 49.7321 57.782L88.3755 54.8018C89.5943 54.7078 90.5061 53.6436 90.4121 52.4249L89.856 45.215C89.762 43.9963 88.6979 43.0844 87.4791 43.1784Z" fill="#585858"/>
<path d="M51.7697 54.7533L52.4117 53.6888C53.02 54.1281 53.5437 54.314 54.1858 54.2633C55.3009 54.1788 55.8922 53.1482 55.8246 51.7628C55.4867 52.2358 54.9292 52.6413 54.1182 52.692C52.5131 52.8103 51.3811 51.9655 51.2629 50.4956C51.1446 49.0257 52.209 47.8092 53.8648 47.6741C54.8109 47.6065 55.4529 47.8261 56.0105 48.3161C56.6187 48.8398 57.0242 49.6339 57.1425 51.1376C57.3283 53.5537 56.247 55.3277 54.2365 55.4798C53.1889 55.5642 52.4286 55.2432 51.7528 54.7702L51.7697 54.7533ZM55.6557 50.0732C55.5881 49.296 54.9292 48.7385 53.983 48.8061C53.0538 48.8736 52.53 49.5494 52.5976 50.3435C52.6652 51.1207 53.3072 51.6445 54.2365 51.5769C55.1995 51.5093 55.7233 50.8335 55.6557 50.0901V50.0732Z" fill="white"/>
<path d="M58.5117 53.9764L59.2551 52.9626C59.8972 53.4695 60.5561 53.7736 61.2657 53.7229C62.1611 53.6553 62.7187 53.0978 62.6511 52.2868C62.6004 51.5265 61.9077 51.0872 60.9954 51.1548C60.4547 51.1886 60.0154 51.3745 59.6268 51.5941L58.7989 51.121L58.7314 47.4209L63.2256 47.083L63.31 48.2488L59.9478 48.5022V50.2762C60.3026 50.1242 60.6405 50.0059 61.1474 49.9721C62.6173 49.8539 63.8169 50.5466 63.9521 52.1516C64.0703 53.6891 63.0228 54.7873 61.3671 54.9225C60.2182 55.007 59.272 54.6184 58.5117 53.9764Z" fill="white"/>
<path d="M65.3867 52.9967L66.8228 52.8784L66.9411 54.3483L65.505 54.4666L65.3867 52.9967Z" fill="white"/>
<path d="M68.4103 53.4696L69.0524 52.4052C69.6606 52.8444 70.1844 53.0303 70.8264 52.9796C71.9415 52.8951 72.5328 51.8645 72.4653 50.4791C72.1273 50.9521 71.5698 51.3407 70.7588 51.4083C69.1537 51.5266 68.0217 50.6818 67.9035 49.2119C67.7852 47.742 68.8496 46.5255 70.5054 46.3904C71.4515 46.3228 72.0936 46.5424 72.6511 47.0324C73.2593 47.5562 73.6648 48.3502 73.7831 49.8539C73.969 52.27 72.8876 54.044 70.8771 54.1961C69.8296 54.2805 69.0693 53.9595 68.3934 53.4696H68.4103ZM72.2963 48.7895C72.2287 48.0123 71.5698 47.4548 70.6236 47.5224C69.6944 47.5899 69.1706 48.2658 69.2382 49.0599C69.3058 49.837 69.9478 50.3608 70.8771 50.2932C71.8401 50.2256 72.3639 49.5498 72.2963 48.8064V48.7895Z" fill="white"/>
<path d="M75 48.3334L79.0042 48.0293L79.0718 48.891L76.0137 49.1275L76.132 50.5974L78.8353 50.3947L78.9028 51.2563L76.1996 51.4591L76.3685 53.6386L75.4224 53.7062L75 48.3334Z" fill="white"/>
<path d="M80.0351 47.9451L81.0319 47.8606L82.8566 50.2767L84.2927 47.6072L85.2895 47.5227L85.7119 52.8955L84.7658 52.963L84.4617 49.1109L82.958 51.7804H82.9242L81.0488 49.3981L81.336 53.2334L80.4068 53.3009L79.9844 47.9282L80.0351 47.9451Z" fill="white"/>
</svg>
