<svg width="112" height="61" viewBox="0 0 112 61" fill="none" xmlns="http://www.w3.org/2000/svg">
<path d="M50.6496 58.617C50.6496 58.617 50.6341 58.617 50.6187 58.617C50.5878 58.6479 50.557 58.6788 50.5261 58.7096C50.5261 58.7251 50.4952 58.7405 50.4798 58.7559C50.4489 58.8177 50.418 58.8794 50.3872 58.9566L50.1094 59.9752H51.1589C51.4521 59.9752 51.6528 59.8363 51.7299 59.5276L52.0077 58.5244H50.9891C50.8656 58.5244 50.7576 58.5553 50.665 58.6016L50.6496 58.617Z" fill="#585858"/>
<path d="M50.7888 50.5762H48.2268L47.9798 51.4713C47.9027 51.78 48.0107 51.9189 48.3194 51.9189H49.3534L47.2544 59.5432C47.1773 59.8519 47.2853 59.9908 47.594 59.9908H48.6435L51.1129 51.0238C51.1901 50.7151 51.082 50.5762 50.7734 50.5762H50.7888Z" fill="#585858"/>
<path d="M43.5346 50.4679C43.2723 50.4679 43.0099 50.4679 42.7784 50.4988C42.7629 50.4988 42.7475 50.4988 42.7321 50.4988C42.6703 50.4988 42.624 50.5142 42.5777 50.5296C42.3925 50.5605 42.2228 50.5914 42.0684 50.6222C42.0067 50.6377 41.9295 50.6531 41.8678 50.684C41.7289 50.7303 41.59 50.7766 41.4665 50.8383C41.4048 50.8692 41.3585 50.8846 41.2967 50.9155C41.127 51.0081 40.9726 51.1007 40.8183 51.2087C40.1855 51.7026 39.707 52.5669 39.3675 53.817C39.0588 54.9128 39.0897 55.6691 39.4138 56.1167C39.7533 56.5488 40.4324 56.7649 41.4665 56.7649C41.6208 56.7649 41.7752 56.7649 41.9141 56.7649C41.9604 56.7649 41.9913 56.7649 42.0376 56.7649C42.1302 56.7649 42.2228 56.7649 42.2999 56.7495C42.3462 56.7495 42.3771 56.7495 42.4234 56.7495C42.5006 56.7495 42.5777 56.734 42.6395 56.7186C42.6704 56.7186 42.7012 56.7186 42.7321 56.7032C42.7321 56.7032 42.7629 56.7032 42.7784 56.7032C42.8093 56.7032 42.8247 56.7032 42.8556 56.6877C42.9327 56.6723 42.9944 56.6569 43.0562 56.6414C43.087 56.6414 43.1179 56.626 43.1488 56.6106C43.1951 56.5951 43.2568 56.5643 43.3031 56.5488C43.334 56.5488 43.3649 56.518 43.3803 56.5025C43.4266 56.4717 43.4729 56.4408 43.5038 56.4099C43.5192 56.4099 43.5346 56.3791 43.5655 56.3636C43.6118 56.3173 43.6735 56.271 43.7198 56.2247L44.0748 55.7926L43.8587 56.5797C43.7044 57.1662 43.6427 57.3977 43.442 57.7681C43.2414 58.1231 43.1951 58.2003 42.8247 58.4009C42.7629 58.4318 42.7166 58.4472 42.6703 58.4626C42.6395 58.4626 42.5932 58.4935 42.5623 58.5089C42.516 58.5244 42.4543 58.5398 42.408 58.5552C42.3771 58.5552 42.3462 58.5707 42.3154 58.5707C42.2536 58.5707 42.1765 58.5861 42.0839 58.6015C42.053 58.6015 42.0376 58.6015 42.0067 58.6015C41.8832 58.6015 41.7597 58.6324 41.59 58.6324C40.9572 58.6787 40.4633 58.6787 39.4292 58.6787H38.9662C38.6576 58.6787 38.4569 58.8176 38.3797 59.1263L38.1328 60.0214H39.0588C40.3861 60.0214 41.1424 60.0214 41.9758 59.8825C42.161 59.8517 42.3308 59.8208 42.4851 59.7899C42.5314 59.7899 42.5777 59.7745 42.624 59.7591C42.6858 59.7591 42.7475 59.7282 42.7938 59.7128C42.8247 59.7128 42.8401 59.6973 42.871 59.6819C42.9945 59.651 43.1025 59.6047 43.2105 59.5584C43.2568 59.543 43.3031 59.5121 43.3494 59.4967C43.4883 59.4195 43.6427 59.3424 43.7816 59.2343C44.3063 58.8485 44.5378 58.5089 44.862 57.7835C45.2169 57.0427 45.4176 56.3636 45.7417 55.1907C46.1275 53.7862 46.3127 52.9065 46.2973 52.1656C46.2973 51.7952 46.251 51.502 46.1429 51.3013C45.788 50.6377 45.0163 50.437 43.5346 50.4525V50.4679ZM44.615 53.7244C44.3835 54.5579 44.2909 54.8666 43.9205 55.1289C43.8588 55.1752 43.797 55.2061 43.7353 55.2524C43.7353 55.2524 43.7044 55.2524 43.689 55.2678C43.6272 55.2987 43.5501 55.3141 43.4729 55.345C43.4729 55.345 43.442 55.345 43.4266 55.345C43.3494 55.345 43.2723 55.3759 43.1797 55.3759C43.1797 55.3759 43.1488 55.3759 43.1334 55.3759C43.0253 55.3759 42.9173 55.3759 42.7938 55.3913C42.7629 55.3913 42.7321 55.3913 42.7012 55.3913C42.5777 55.3913 42.4388 55.3913 42.2845 55.3913C41.3739 55.3913 40.9726 55.3604 40.7874 55.0672C40.6177 54.7585 40.6794 54.4653 40.9263 53.5701C41.1578 52.7058 41.2659 52.4126 41.6054 52.1039C41.6672 52.0576 41.7289 52.0113 41.806 51.965C41.806 51.965 41.8369 51.9496 41.8523 51.9341C41.9141 51.9033 41.9912 51.8724 42.0684 51.857C42.0684 51.857 42.0993 51.857 42.1147 51.857C42.1919 51.8415 42.2691 51.8261 42.3617 51.8107C42.3771 51.8107 42.3925 51.8107 42.408 51.8107C42.516 51.8107 42.624 51.8107 42.7475 51.7952C42.7784 51.7952 42.8092 51.7952 42.8401 51.7952C42.979 51.7952 43.1179 51.7952 43.2877 51.7952C44.1829 51.7952 44.5841 51.857 44.7539 52.1965C44.9391 52.5206 44.8619 52.8602 44.6304 53.709L44.615 53.7244Z" fill="#585858"/>
<path d="M58.6594 50.4679C58.3971 50.4679 58.1347 50.4679 57.9032 50.4988C57.8878 50.4988 57.8723 50.4988 57.8569 50.4988C57.7952 50.4988 57.7489 50.5142 57.7026 50.5296C57.5174 50.5605 57.3476 50.5914 57.1778 50.6222C57.1161 50.6377 57.0389 50.6531 56.9772 50.684C56.8383 50.7303 56.6994 50.7766 56.5759 50.8383C56.5142 50.8692 56.4679 50.8846 56.4061 50.9155C56.2364 51.0081 56.082 51.1007 55.9277 51.2087C55.2949 51.7026 54.8164 52.5669 54.4769 53.817C54.1682 54.9128 54.1991 55.6691 54.5232 56.1167C54.8627 56.5488 55.5418 56.7649 56.5759 56.7649C56.7302 56.7649 56.8846 56.7649 57.0235 56.7649C57.0698 56.7649 57.1006 56.7649 57.1469 56.7649C57.2395 56.7649 57.3321 56.7649 57.4093 56.7495C57.4556 56.7495 57.4865 56.7495 57.5328 56.7495C57.61 56.7495 57.6871 56.734 57.7489 56.7186C57.7797 56.7186 57.8106 56.7186 57.8415 56.7032C57.8415 56.7032 57.8723 56.7032 57.8878 56.7032C57.9186 56.7032 57.9341 56.7032 57.9649 56.6877C58.0421 56.6723 58.1038 56.6569 58.1656 56.6414C58.1964 56.6414 58.2273 56.626 58.2582 56.6106C58.3199 56.5951 58.3662 56.5643 58.4125 56.5488C58.4434 56.5488 58.4742 56.518 58.4897 56.5025C58.536 56.4717 58.5823 56.4408 58.6131 56.4099C58.6286 56.4099 58.644 56.3791 58.6749 56.3636C58.7212 56.3173 58.7829 56.271 58.8292 56.2247L59.1842 55.7926L58.9681 56.5797C58.8138 57.1662 58.7521 57.3977 58.5514 57.7681C58.3508 58.1231 58.3045 58.2003 57.9341 58.4009C57.8723 58.4318 57.826 58.4472 57.7797 58.4626C57.7489 58.4626 57.7026 58.4935 57.6717 58.5089C57.6254 58.5244 57.5637 58.5398 57.5174 58.5552C57.4865 58.5552 57.4556 58.5707 57.4248 58.5707C57.363 58.5707 57.2858 58.5861 57.1932 58.6015C57.1624 58.6015 57.1469 58.6015 57.1161 58.6015C56.9926 58.6015 56.8691 58.6324 56.6994 58.6324C56.0666 58.6787 55.5727 58.6787 54.5386 58.6787H54.0756C53.7669 58.6787 53.5663 58.8176 53.4891 59.1263L53.2422 60.0214H54.1682C55.4955 60.0214 56.2518 60.0214 57.0852 59.8825C57.2704 59.8517 57.4402 59.8208 57.5945 59.7899C57.6408 59.7899 57.6871 59.7745 57.718 59.7591C57.7797 59.7591 57.8415 59.7282 57.8878 59.7128C57.9186 59.7128 57.9341 59.6973 57.9649 59.6819C58.073 59.651 58.1964 59.6047 58.2891 59.5584C58.3354 59.543 58.3971 59.5121 58.4434 59.4967C58.5823 59.4195 58.7366 59.3424 58.8755 59.2343C59.4003 58.8485 59.6318 58.5089 59.9559 57.7835C60.3109 57.0427 60.5115 56.3636 60.8356 55.1907C61.2215 53.7862 61.4067 52.9065 61.3912 52.1656C61.3912 51.7952 61.345 51.502 61.2369 51.3013C60.8819 50.6377 60.1102 50.437 58.6286 50.4525L58.6594 50.4679ZM59.7398 53.7244C59.5083 54.5579 59.4157 54.8666 59.0453 55.1289C58.9836 55.1752 58.9218 55.2061 58.8601 55.2524C58.8601 55.2524 58.8292 55.2524 58.8138 55.2678C58.7521 55.2987 58.6749 55.3141 58.5977 55.345C58.5977 55.345 58.5669 55.345 58.5514 55.345C58.4743 55.345 58.3971 55.3759 58.3045 55.3759C58.3045 55.3759 58.2736 55.3759 58.2582 55.3759C58.1501 55.3759 58.0421 55.3759 57.9186 55.3913C57.8878 55.3913 57.8569 55.3913 57.826 55.3913C57.7026 55.3913 57.5637 55.3913 57.4093 55.3913C56.4987 55.3913 56.0974 55.3604 55.9122 55.0672C55.7425 54.7585 55.8042 54.4653 56.0512 53.5701C56.2827 52.7058 56.3907 52.4126 56.7302 52.1039C56.792 52.0576 56.8537 52.0113 56.9309 51.965C56.9309 51.965 56.9617 51.9496 56.9772 51.9341C57.0389 51.9033 57.1161 51.8724 57.1932 51.857H57.2241C57.3013 51.8415 57.3785 51.8261 57.4711 51.8107C57.4865 51.8107 57.5019 51.8107 57.5174 51.8107C57.6254 51.8107 57.7334 51.8107 57.8569 51.7952C57.8878 51.7952 57.9186 51.7952 57.9495 51.7952C58.0884 51.7952 58.2273 51.7952 58.3971 51.7952C59.2922 51.7952 59.6935 51.857 59.8633 52.1965C60.0485 52.5206 59.9713 52.8602 59.7398 53.709V53.7244Z" fill="#585858"/>
<path d="M49.661 17.1002H57.4088C63.1965 9.02833 79.0007 3.73453 87.6282 0.0612793L83.708 1.23425L83.4611 1.31142L72.4105 4.64512L70.188 5.30878L57.8872 9.04376L55.4487 6.83672H51.5285L49.0128 9.07463L31.3102 3.64192L23.3155 1.23425L19.457 0.0767127C28.3932 3.91973 44.8611 10.3865 49.6456 17.1156L49.661 17.1002ZM53.4423 8.99746C54.0597 8.99746 54.6153 9.21353 55.0011 9.53764C55.4024 9.87719 55.6493 10.3556 55.6493 10.8804C55.6493 11.4823 55.3407 12.3312 54.8313 12.9794C54.4455 13.4887 53.9516 13.8591 53.4269 13.8745H53.4114H53.3806C52.8867 13.8745 52.4391 13.5196 52.0687 13.0411C51.5902 12.4238 51.2816 11.5903 51.2507 10.9884C51.2507 10.9884 51.2507 10.9267 51.2507 10.9113C51.2507 10.9113 51.2507 10.8804 51.2507 10.8495C51.2507 9.86175 52.223 8.99746 53.4423 8.99746Z" fill="#585858"/>
<path d="M101.302 20.3257H89.7424L89.6652 20.6035L89.6189 20.7424L86.1772 32.1017L86.1309 32.2406L85.9766 32.7345H98.2001C100.237 32.7653 101.549 32.0245 102.151 30.1725L103.772 24.8632C104.389 23.0575 104.559 22.116 104.266 21.406C103.895 20.5109 102.522 20.3257 101.287 20.3257H101.302ZM96.9191 29.7094H92.3353L94.2645 23.3507H98.8484L96.9191 29.7094Z" fill="#585858"/>
<path d="M67.2089 30.1728L68.8294 24.8636C69.2307 23.4746 70.1259 21.4527 68.6134 20.6965C68.0115 20.3878 67.1472 20.3106 66.3446 20.3261H61.3903H57.9795C55.9422 20.2952 54.6303 21.036 54.0284 22.8881L52.4079 28.1973C52.0066 29.5864 51.1114 31.6082 52.6239 32.3644C53.2259 32.6731 54.0902 32.7503 54.8927 32.7349H59.029H63.2578C65.2951 32.7657 66.607 32.0249 67.2089 30.1728ZM58.6122 29.7098H57.3467L59.2759 23.3511H61.7145H63.8906L61.9614 29.7098H58.6122Z" fill="#585858"/>
<path d="M33.1782 29.7094H23.9642L24.4581 28.0889H31.8509H32.0978H32.3756L32.4682 27.8265L32.4991 27.6722L33.1319 25.6195L33.1782 25.4806L33.3171 24.9867H32.8078H32.5608H25.3996L25.8934 23.3661H35.3389H35.5859H35.8637L35.9563 23.0883L35.9871 22.9494H36.0026L36.5891 20.9739L36.6354 20.835L36.7897 20.3257H36.2649H36.018H21.8961H21.6491H21.3713L21.2787 20.6035L21.2479 20.7578L17.8061 32.1017L17.7598 32.2406L17.6055 32.7499H18.1302H18.3772H32.4991H32.746H33.0238L33.1165 32.4721L33.1473 32.3178L33.7492 30.3577L33.7955 30.2188L33.9499 29.7094H33.4251H33.1782Z" fill="#585858"/>
<path d="M85.9016 25.0484C86.0251 24.6317 86.1486 24.2304 86.272 23.8137C87.1518 21.2517 86.1794 20.3411 83.9261 20.3257H71.9494C70.761 24.2459 69.5726 28.1661 68.3842 32.1017L68.3379 32.2406L68.1836 32.7345H73.5854L73.6626 32.4567L73.7089 32.3178L74.9127 28.3513H76.703L78.6323 32.4258L78.6631 32.503L78.7712 32.719H84.744C83.9569 31.1602 83.1698 29.6014 82.3827 28.0426C84.8675 27.7339 85.4386 26.7616 85.8862 25.033L85.9016 25.0484ZM80.8547 23.8909L80.5461 24.8941C80.4535 25.1719 80.2991 25.2799 80.0213 25.3571L75.422 26.5609L76.4407 23.3661H80.4535C80.8548 23.3661 80.9936 23.505 80.8702 23.8909H80.8547Z" fill="#585858"/>
<path d="M16.1697 32.7503H16.8025C16.0154 31.1915 15.2282 29.6327 14.4411 28.0739C16.926 27.7652 17.497 26.7929 17.9446 25.0643C18.0681 24.6476 18.1915 24.2463 18.315 23.8296C19.1947 21.2676 18.2224 20.357 15.9691 20.3416H3.99242C2.80401 24.2617 1.61561 28.1819 0.42721 32.1176L0.38091 32.2565L0.226562 32.7503H5.6284L5.70557 32.4725L5.75187 32.3336L6.95571 28.3671H8.74604L10.6753 32.4417L10.7061 32.5188L10.8142 32.7349H16.1697V32.7503ZM12.8823 23.8913L12.5736 24.8945C12.481 25.1723 12.3267 25.2804 12.0489 25.3575L7.4496 26.5614L8.46824 23.3666H12.481C12.8823 23.3666 13.0212 23.5055 12.8977 23.8913H12.8823Z" fill="#585858"/>
<path d="M51.6816 24.9406L52.5613 22.2551C52.9009 21.3136 52.2681 20.295 51.1568 20.3259H45.0142H41.5107C39.4734 20.295 38.1616 21.0358 37.5597 22.8879L35.9391 28.1971C35.5378 29.5862 34.6427 31.608 36.1552 32.3643C36.7571 32.6729 37.6214 32.7501 38.424 32.7347C41.912 32.7347 43.301 32.7347 46.8045 32.7347H47.4682C48.5485 32.7655 49.7987 31.7623 50.0456 30.8054L50.8019 28.1817H46.6656L46.218 29.6942H40.8934L42.8226 23.3355H45.2611H47.854L47.3756 24.9252H51.697L51.6816 24.9406Z" fill="#585858"/>
<path d="M109.265 18.7823C109.188 18.6897 109.08 18.6125 108.941 18.5353C109.203 18.5045 109.389 18.4119 109.512 18.273C109.636 18.1341 109.713 17.9489 109.713 17.7328C109.713 17.563 109.666 17.4087 109.589 17.2698C109.512 17.1309 109.389 17.0383 109.25 16.992C109.111 16.9457 108.879 16.9148 108.571 16.9148H107.336V19.8472H107.922V18.6279H108.046C108.185 18.6279 108.277 18.628 108.339 18.6588C108.37 18.6588 108.401 18.6897 108.432 18.7051C108.463 18.7206 108.478 18.7514 108.509 18.7823C108.571 18.844 108.679 18.9829 108.818 19.2144L109.25 19.8472H109.96L109.605 19.2762C109.466 19.0447 109.358 18.8903 109.265 18.7977V18.7823ZM108.432 18.1341H107.922V17.3932H108.432C108.632 17.3932 108.771 17.3932 108.802 17.3932C108.895 17.3932 108.972 17.4395 109.034 17.5013C109.08 17.563 109.111 17.6402 109.111 17.7328C109.111 17.8254 109.095 17.8871 109.049 17.9489C109.003 18.0106 108.956 18.0569 108.879 18.0723C108.818 18.0878 108.663 18.1032 108.416 18.1032L108.432 18.1341Z" fill="#585858"/>
<path d="M108.434 15.5569C106.891 15.5569 105.625 16.807 105.625 18.3504C105.625 19.8938 106.875 21.1594 108.434 21.1594C109.977 21.1594 111.227 19.9092 111.227 18.3504C111.227 16.7916 109.977 15.5569 108.434 15.5569ZM108.434 20.5574C107.215 20.5574 106.227 19.5697 106.227 18.3504C106.227 17.1311 107.215 16.1434 108.434 16.1434C109.653 16.1434 110.641 17.1311 110.641 18.3504C110.641 19.5697 109.653 20.5574 108.434 20.5574Z" fill="#585858"/>
<path d="M59.6029 44.0788H60.5289L62.6742 36.6396H61.2543C60.853 36.6396 60.7295 36.7014 60.5598 36.9175L55.7907 42.5662L57.3958 36.9946C57.4576 36.7477 57.365 36.6396 57.0872 36.6396H56.1765L54.0312 44.0788H55.4512C55.837 44.0788 55.9913 44.0016 56.1302 43.8009L60.8993 38.1367L59.2942 43.7238C59.2325 43.9707 59.325 44.0788 59.6029 44.0788Z" fill="#585858"/>
<path d="M46.8518 37.7046C47.1141 37.7046 47.2839 37.5965 47.3457 37.3496L47.5463 36.6396H42.7927C42.5149 36.6396 42.3605 36.7477 42.2833 36.9946L40.2461 44.0788H45.0151C45.2775 44.0788 45.4473 43.9707 45.509 43.7238L45.7097 43.0138H41.8512L42.5149 40.7142H45.756C46.0338 40.7142 46.2035 40.5907 46.2653 40.3438L46.4659 39.6492H42.8081L43.3637 37.7046H46.8209H46.8518Z" fill="#585858"/>
<path d="M71.4552 36.9946L69.418 44.0788H72.2732C73.2147 44.0788 73.9401 43.909 74.4494 43.5849C74.9587 43.2453 75.3446 42.6125 75.6069 41.7019C75.8693 40.7759 75.8539 40.1431 75.5452 39.8036C75.2365 39.464 74.6037 39.2943 73.6623 39.2943H72.1189L72.5819 37.7046H75.6378C75.9156 37.7046 76.0854 37.5811 76.1471 37.3342L76.3478 36.6396H71.9954C71.7176 36.6396 71.5478 36.7477 71.4707 36.9946H71.4552ZM73.3382 40.3438C73.9092 40.3438 74.2488 40.4209 74.3568 40.5598C74.4803 40.6987 74.434 41.0692 74.2642 41.6865C73.8166 42.9675 73.7703 42.9675 72.5665 43.0138H71.0231L71.7948 40.3438H73.3382Z" fill="#585858"/>
<path d="M83.9242 37.1644L84.0786 36.6396H83.4767C83.0908 36.6396 82.9673 36.7323 82.813 36.9946L80.3899 41.0692H79.2015L79.3558 37.1644C79.3867 36.7477 79.2941 36.6396 78.9082 36.6396H78.1983L78.044 37.1644C77.9977 37.3187 77.9822 37.5039 77.9822 37.7046L78.0285 40.8839C78.0285 41.6248 78.2292 42.026 79.0471 42.026C79.2941 42.026 79.5719 42.0106 79.8651 41.9798L79.5873 42.4428C79.2941 42.9058 79.0934 43.0138 78.4915 43.0138H77.2723C76.9945 43.0138 76.8247 43.1218 76.7475 43.3688L76.5469 44.0788H78.1829C78.9854 44.0788 79.4484 44.0016 79.8651 43.662C80.0812 43.4923 80.251 43.3071 80.3899 43.1373C80.5288 42.9675 80.6986 42.6743 80.9301 42.2884L83.6464 37.7972C83.7699 37.5965 83.8625 37.3959 83.9242 37.1798V37.1644Z" fill="#585858"/>
<path d="M90.5002 37.1644C90.2378 36.8094 89.5587 36.6396 88.4629 36.6396H85.8237C85.5459 36.6396 85.3762 36.7477 85.299 36.9946L83.2617 44.0788H84.1878C84.4501 44.0788 84.6199 43.9707 84.6817 43.7238L85.299 41.5939H87.043C88.1234 41.5939 88.9105 41.4241 89.3735 41.0692C89.8519 40.7142 90.2069 40.066 90.4847 39.1245C90.7625 38.183 90.7625 37.5348 90.4847 37.1798L90.5002 37.1644ZM89.1574 39.1091C88.9722 39.7418 88.787 40.1431 88.5864 40.2975C88.4012 40.4518 87.9845 40.529 87.3363 40.529H85.5922L86.4102 37.6891H88.1543C88.8025 37.6891 89.1729 37.7663 89.2655 37.9361C89.3735 38.0904 89.3427 38.4763 89.1574 39.1091Z" fill="#585858"/>
<path d="M18.2854 37.7046C18.5477 37.7046 18.7175 37.5965 18.7792 37.3496L18.9799 36.6396H14.2263C13.9484 36.6396 13.7941 36.7477 13.7169 36.9946L11.6797 44.0788H16.4487C16.7111 44.0788 16.8809 43.9707 16.9426 43.7238L17.1432 43.0138H13.2848L13.9484 40.7142H17.1895C17.4674 40.7142 17.6371 40.5907 17.6989 40.3438L17.8995 39.6492H14.2417L14.7973 37.7046H18.2545H18.2854Z" fill="#585858"/>
<path d="M69.5882 36.6396H68.6776L67.7825 39.7418H64.634L65.4211 36.9946C65.4828 36.7477 65.3902 36.6396 65.1278 36.6396H64.2018L62.1646 43.7238C62.0874 43.9707 62.1645 44.0788 62.4732 44.0788H63.3838L64.3253 40.8068H67.4738L66.6249 43.7238C66.5632 43.9707 66.6558 44.0788 66.9336 44.0788H67.8596L69.8969 36.9946C69.9586 36.7477 69.8506 36.6396 69.5882 36.6396Z" fill="#585858"/>
<path d="M92.4591 36.9946L90.4219 44.0788H91.3479C91.6257 44.0788 91.7955 43.9707 91.8727 43.7238L93.6166 37.7046H96.4411C96.7189 37.7046 96.8886 37.5811 96.9503 37.3342L97.151 36.6396H92.9993C92.7215 36.6396 92.5517 36.7477 92.4746 36.9946H92.4591Z" fill="#585858"/>
<path d="M21.9898 40.3279L25.339 37.8739C25.6013 37.6733 25.7557 37.4418 25.8483 37.1485L26.0026 36.6238H25.4007C25.2001 36.6238 25.0612 36.6392 24.9686 36.6701C24.8914 36.7009 24.7525 36.809 24.5519 36.9788L20.9249 39.8957H20.8477L21.7892 36.6238H20.8786C20.6008 36.6238 20.4465 36.7318 20.3693 36.9788L18.332 44.0629H19.258C19.5204 44.0629 19.6902 43.9548 19.7519 43.7079L20.6008 40.7909H20.678L22.7924 43.7851C22.9467 44.032 23.0856 44.0629 23.456 44.0629H23.9499L24.1043 43.5381C24.1814 43.2449 24.1814 43.0442 24.0734 42.9208L21.9898 40.3125V40.3279Z" fill="#585858"/>
<path d="M31.5435 36.7323C31.4201 36.6705 31.1423 36.6396 30.6947 36.6396H30.4632C30.031 36.6396 29.7378 36.6705 29.5834 36.7323C29.4291 36.7786 29.2593 36.9329 29.1204 37.1644L25.3854 42.9366C25.2774 43.1064 25.1848 43.3071 25.1231 43.5386L24.9688 44.0788H25.4626C25.7559 44.0788 25.9565 44.0479 26.0491 43.9707C26.1571 43.8935 26.2806 43.7546 26.4195 43.5386L27.2375 42.2113H30.7256L30.7873 43.5386C30.8181 43.9861 30.8799 44.0788 31.4509 44.0788H31.9448L32.0992 43.5386C32.1609 43.3225 32.1763 43.1219 32.1609 42.9366L31.7596 37.1644C31.7442 36.9329 31.6825 36.794 31.5435 36.7323ZM27.8394 41.2389L30.1082 37.612H30.5095L30.6638 41.2389H27.8549H27.8394Z" fill="#585858"/>
<path d="M40.465 37.7046C40.7428 37.7046 40.9126 37.5811 40.9897 37.3342L41.1904 36.6396H35.5107C35.2329 36.6396 35.0786 36.7477 35.0014 36.9946L34.8008 37.7046H37.1467L35.3101 44.0788H36.2053C36.4831 44.0788 36.6528 43.9707 36.73 43.7238L38.474 37.7046H40.4959H40.465Z" fill="#585858"/>
<path d="M54.1057 39.1242C54.3835 38.1827 54.3835 37.5345 54.1057 37.1795C53.8433 36.8246 53.1642 36.6548 52.0684 36.6548H49.4292C49.1514 36.6548 48.9816 36.7628 48.9045 37.0098L46.8672 44.0939H47.7932C48.0556 44.0939 48.2254 43.9858 48.2871 43.7389L48.9045 41.609H50.6485C51.7289 41.609 52.516 41.4393 52.979 41.0843C53.4574 40.7293 53.8124 40.0811 54.0902 39.1396L54.1057 39.1242ZM52.7783 39.1242C52.5931 39.757 52.4079 40.1583 52.2073 40.3126C52.0221 40.4669 51.6054 40.5441 50.9572 40.5441H49.2131L50.0311 37.7043H51.7752C52.4234 37.7043 52.7938 37.7815 52.8864 37.9512C52.9944 38.1056 52.9635 38.4914 52.7783 39.1242Z" fill="#585858"/>
</svg>
