<svg width="87" height="52" viewBox="0 0 87 52" fill="none" xmlns="http://www.w3.org/2000/svg">
<path fill-rule="evenodd" clip-rule="evenodd" d="M84.2591 44.009C84.5761 44.0257 85.0933 44.1425 85.0933 44.693C85.0933 45.2602 84.5594 45.3603 84.2591 45.377C84.1424 45.377 77.219 45.377 77.1022 45.377C76.7852 45.3603 76.268 45.2436 76.268 44.693C76.268 44.1425 76.8019 44.0257 77.1022 44.009C77.2356 44.009 84.0423 44.009 84.2591 44.009ZM74.5664 44.693C74.5664 46.061 75.5674 46.9285 77.2523 47.0119C77.3858 47.0119 77.5193 47.0119 77.636 47.0119H83.7587H83.8087C85.6772 47.0119 86.7783 46.1444 86.7783 44.6763C86.7783 43.3083 85.7773 42.4408 84.0923 42.3574C83.9588 42.3574 83.8254 42.3574 83.7086 42.3574H77.586H77.536C75.6675 42.3574 74.5664 43.2249 74.5664 44.693Z" fill="#585858"/>
<path fill-rule="evenodd" clip-rule="evenodd" d="M76.5336 50.9652L76.3001 49.7974H86.6268V48.1458H75.0489C74.7986 48.1458 74.6151 48.3793 74.6485 48.6296L75.0989 50.9652H76.5169H76.5336Z" fill="#585858"/>
<path d="M86.7103 34.7166H85.2422V36.1846H86.7103V34.7166Z" fill="#585858"/>
<path fill-rule="evenodd" clip-rule="evenodd" d="M74.6484 35.0163H76.3001V32.1802C78.252 32.1802 78.6189 32.3804 79.4865 32.7974C80.3039 33.2145 80.9045 33.4647 81.4384 33.5982H81.5051C82.0557 33.765 82.723 33.8318 83.4904 33.8318H86.7269V32.1802H83.4904C82.8731 32.1802 82.3559 32.1301 81.9388 32.0133H81.8721C81.4551 31.8799 80.9546 31.6797 80.2372 31.3127C79.2029 30.7955 78.5689 30.5452 76.3334 30.5286H75.0989C74.882 30.5286 74.6985 30.7121 74.6985 30.929V34.9996L74.6484 35.0163Z" fill="#585858"/>
<path fill-rule="evenodd" clip-rule="evenodd" d="M76.3001 36.5852H74.6484V40.8727C74.6484 41.0896 74.8153 41.2564 75.0322 41.2564H80.671V39.6048C80.4041 39.5381 80.1204 39.3212 80.1204 38.9208C80.1204 38.3536 80.6543 38.2535 80.9546 38.2368C81.088 38.2368 84.0242 38.2368 84.2578 38.2368C84.5748 38.2535 85.0919 38.3703 85.0919 38.9208C85.0919 39.488 84.5581 39.5881 84.2578 39.6048C84.2411 39.6048 83.9575 39.6048 83.5404 39.6048V41.2564H83.7573H83.8074C85.6758 41.2564 86.7769 40.3889 86.7769 38.9208C86.7769 37.5528 85.7759 36.6853 84.0909 36.6019C83.9575 36.6019 83.8241 36.6019 83.7073 36.6019H81.4884H81.4551H81.405C81.0714 36.6019 80.7544 36.6353 80.4708 36.6853C79.3364 36.8521 78.4855 37.703 78.4855 38.7039C78.4855 39.0209 78.5856 39.3379 78.7358 39.6048H76.3001V36.5852Z" fill="#585858"/>
<path fill-rule="evenodd" clip-rule="evenodd" d="M9.88596 35.1502C8.00079 35.1502 6.46594 29.6449 6.46594 22.8383C6.46594 16.0317 8.00079 10.5263 9.88596 10.5263C9.95269 10.5263 10.0361 10.5263 10.1028 10.5597C9.65235 9.05823 9.06846 7.65687 8.38446 6.40566C12.8221 11.7775 13.039 18.1337 13.0557 18.1337C13.2225 19.5684 13.3226 21.17 13.3226 22.8383C13.3226 29.6449 11.7878 35.1502 9.90261 35.1502H9.88596ZM21.5806 43.3749H16.6925C17.2264 40.372 20.4462 39.0207 21.8976 33.2317C23.8161 25.5743 20.0458 20.6528 17.3932 18.2672C17.3932 18.2672 17.6268 26.7421 14.9409 31.8971C15.7083 28.7941 16.142 25.1238 16.142 21.1867C16.142 10.0258 12.5719 0.967041 8.18427 0.967041C3.79668 0.967041 0.226562 10.0258 0.226562 21.1867C0.226562 32.3475 3.77999 41.4063 8.18427 41.4063C10.8368 41.4063 13.1891 38.1031 14.6405 33.0148C15.2411 32.6311 16.2755 32.6144 16.4757 32.6144C18.3108 32.6144 19.7789 34.9 16.876 38.7537C15.3579 40.9726 14.8574 42.3405 14.7406 43.3749H9.45219C8.91833 43.3749 8.60134 43.6585 8.60134 44.1423V48.4798C7.38349 48.5633 6.41589 49.5642 6.41589 50.8154V50.9656H22.4315V44.1423C22.4315 43.6585 22.1311 43.3749 21.5806 43.3749Z" fill="#585858"/>
<path fill-rule="evenodd" clip-rule="evenodd" d="M65.4896 22.4877V19.051L66.5073 17.7498C66.7575 17.9667 67.3915 18.6006 67.3915 19.6516V26.6584H69.8772V19.4681C69.8772 18.0501 69.2433 16.7321 68.1422 15.8146L68.0588 15.7478L68.3591 15.3641C69.3434 14.1129 69.8772 12.5614 69.8772 10.9765V6.23861H67.3915V11.3102C67.3915 12.3279 67.0411 13.3455 66.4072 14.1463L65.4896 15.3141V6.22192H63.0039V26.6418H65.4896V22.4544V22.4877Z" fill="#585858"/>
<path fill-rule="evenodd" clip-rule="evenodd" d="M86.7424 8.72403V6.23828H81.6374C81.2203 6.23828 80.8867 6.57194 80.8867 6.98901V25.9074C80.8867 26.3245 81.2203 26.6581 81.6374 26.6581H86.7424V24.1724H83.3891V15.197H86.5922V12.7112H83.3724V8.74071H86.7257L86.7424 8.72403Z" fill="#585858"/>
<path fill-rule="evenodd" clip-rule="evenodd" d="M59.8496 36.6516L57.931 39.4209V30.5457H55.4453V50.9655H57.931V43.3748L59.8496 40.6221V50.9655H62.352V30.5457H59.8496V36.6516Z" fill="#585858"/>
<path fill-rule="evenodd" clip-rule="evenodd" d="M40.6309 40.8719H38.7123C38.7123 40.8719 38.7123 34.449 38.7123 34.4324C38.7123 33.6816 38.8791 33.0143 39.7133 33.0143H40.6309V40.8553V40.8719ZM42.3658 30.5286H39.73C37.678 30.5286 36.3767 32.03 36.2433 34.5491C36.2433 34.7493 36.2266 34.9495 36.2266 35.133V50.9484H38.7123V43.3577H40.6309V50.9484H43.1333V31.2793C43.1333 30.8622 42.7996 30.5286 42.3825 30.5286H42.3658Z" fill="#585858"/>
<path fill-rule="evenodd" clip-rule="evenodd" d="M68.9088 47.3285C68.8755 47.7956 68.7086 48.5797 67.8745 48.5797C67.0404 48.5797 66.8735 47.7956 66.8402 47.3285C66.8402 47.1449 66.8402 34.3492 66.8402 34.1824C66.8735 33.7152 67.0404 32.9311 67.8745 32.9311C68.7086 32.9311 68.8755 33.7152 68.9088 34.1824C68.9088 34.3992 68.9088 46.9948 68.9088 47.3451V47.3285ZM67.8745 30.3787C65.8225 30.3787 64.5213 31.8801 64.3878 34.3992C64.3878 34.5994 64.3711 34.7996 64.3711 34.9831V46.5777V46.6611C64.3711 49.4472 65.6724 51.1155 67.8745 51.1155C69.9265 51.1155 71.2278 49.614 71.3612 47.0949C71.3612 46.8947 71.3779 46.6945 71.3779 46.511V34.9164V34.833C71.3779 32.0469 70.0766 30.3787 67.8745 30.3787Z" fill="#585858"/>
<path fill-rule="evenodd" clip-rule="evenodd" d="M60.1347 25.5911C60.7686 24.807 61.0856 23.7393 61.0856 22.4213V20.1524H58.6165V22.488C58.6165 23.122 58.5164 23.6058 58.2996 23.8894C58.0994 24.173 57.8491 24.3065 57.5155 24.3065C57.1651 24.3065 56.9149 24.173 56.7314 23.9061C56.5312 23.6225 56.4311 23.1887 56.4311 22.5214V10.3096C56.4311 9.65892 56.5312 9.20848 56.7314 8.92487C56.9149 8.65795 57.1651 8.52448 57.5155 8.52448C57.8491 8.52448 58.0994 8.65795 58.2996 8.94156C58.5164 9.24185 58.6165 9.70897 58.6165 10.3596V12.6785H61.0856V10.4096C61.0856 9.0917 60.7686 8.024 60.1347 7.2399C59.4841 6.42244 58.5999 6.00537 57.5155 6.00537C56.4311 6.00537 55.5469 6.42244 54.8962 7.2399C54.2623 8.024 53.9453 9.0917 53.9453 10.4096V22.4046C53.9453 23.7226 54.2623 24.7903 54.8962 25.5744C55.5469 26.3918 56.4311 26.8089 57.5155 26.8089C58.5999 26.8089 59.4841 26.3918 60.1347 25.5744V25.5911Z" fill="#585858"/>
<path fill-rule="evenodd" clip-rule="evenodd" d="M76.3847 23.2721C76.3513 23.7559 76.1845 24.54 75.3336 24.54C74.4828 24.54 74.316 23.7393 74.2826 23.2721C74.2826 23.0886 74.2826 10.0426 74.2826 9.85911C74.316 9.37531 74.4828 8.57453 75.3336 8.57453C76.1845 8.57453 76.3513 9.37531 76.3847 9.84243C76.3847 10.0593 76.3847 22.9218 76.3847 23.2721ZM75.3336 6.02205C73.265 6.02205 71.947 7.54019 71.8136 10.0927C71.8136 10.3096 71.7969 10.4931 71.7969 10.6766V22.4547V22.5047V22.5881C71.7969 25.4075 73.1148 27.0925 75.3336 27.0925C77.4023 27.0925 78.7203 25.5744 78.8537 23.0219C78.8537 22.8217 78.8704 22.6215 78.8704 22.438V10.5932V10.5097C78.8704 7.69034 77.5525 6.00537 75.3336 6.00537V6.02205Z" fill="#585858"/>
<path fill-rule="evenodd" clip-rule="evenodd" d="M48.7225 26.8256C49.8069 26.8256 50.691 26.4085 51.3417 25.5911C51.9756 24.807 52.2926 23.7393 52.2926 22.4213V20.1524H49.8235V22.488C49.8235 23.122 49.7235 23.6058 49.5066 23.8894C49.3064 24.173 49.0562 24.3065 48.7225 24.3065C48.3722 24.3065 48.1219 24.173 47.9384 23.9061C47.7382 23.6225 47.6381 23.1887 47.6381 22.5214V10.3096C47.6381 9.65892 47.7382 9.20848 47.9384 8.92487C48.1219 8.65795 48.3722 8.52448 48.7225 8.52448C49.0562 8.52448 49.3064 8.65795 49.5066 8.94156C49.7235 9.24185 49.8235 9.70897 49.8235 10.3596V12.6785H52.2926V10.4096C52.2926 9.0917 51.9756 8.024 51.3417 7.2399C50.691 6.42244 49.8069 6.00537 48.7225 6.00537C47.6381 6.00537 46.7539 6.42244 46.1033 7.2399C45.4693 8.024 45.1523 9.0917 45.1523 10.4096V22.4046C45.1523 23.7226 45.4693 24.7903 46.1033 25.5744C46.7539 26.3918 47.6381 26.8089 48.7225 26.8089V26.8256Z" fill="#585858"/>
<path fill-rule="evenodd" clip-rule="evenodd" d="M30.2709 8.72403H32.1728V11.3266C32.1728 12.3442 31.8224 13.3619 31.1885 14.1626L30.2709 15.3304V8.72403ZM27.7852 7.00569V26.6748H30.2709V19.0507L33.1403 15.3638C34.1246 14.1126 34.6585 12.5611 34.6585 10.9762V6.23828H28.5359C28.1188 6.23828 27.7852 6.57194 27.7852 6.98901V7.00569Z" fill="#585858"/>
<path fill-rule="evenodd" clip-rule="evenodd" d="M30.2709 33.0147H32.1728V35.6172C32.1728 36.6349 31.8224 37.6526 31.1885 38.4533L30.2709 39.6211V33.0147ZM27.7852 31.2964V50.9655H30.2709V43.3414L33.1403 39.6712C34.1246 38.42 34.6585 36.8685 34.6585 35.2836V30.5457H28.5359C28.1188 30.5457 27.7852 30.8793 27.7852 31.2964Z" fill="#585858"/>
<path fill-rule="evenodd" clip-rule="evenodd" d="M50.3765 48.4464H47.9242C48.2244 45.8105 48.458 43.5249 48.458 40.4553V34.4328C48.458 33.682 48.6248 33.0147 49.459 33.0147H50.3765V48.4297V48.4464ZM52.8623 48.4464V32.4475V31.2964C52.8623 30.8793 52.5286 30.5457 52.1116 30.5457H49.4757C47.4237 30.5457 46.1224 32.0471 45.9889 34.5662C45.9889 34.7664 45.9722 34.9666 45.9722 35.1501V40.472C45.9722 43.1579 45.5218 47.6456 45.4384 48.4631H44.2539V50.9655H54.1969V48.4631H52.879L52.8623 48.4464Z" fill="#585858"/>
<path fill-rule="evenodd" clip-rule="evenodd" d="M40.7995 24.0055C40.7995 24.1724 40.666 24.3058 40.4991 24.3058H38.9143C38.7475 24.3058 38.614 24.1724 38.614 24.0055V22.821C38.614 22.6542 38.7475 22.5208 38.9143 22.5208H40.8161V24.0055H40.7995ZM40.6493 6.23828V15.3304L39.7317 14.1626C39.0978 13.3619 38.7474 12.3442 38.7474 11.3266V6.25496H36.2617V10.9929C36.2617 12.5778 36.7955 14.1293 37.7798 15.3805L40.8161 19.2176V20.1685H38.4638C37.246 20.1685 36.2784 21.1528 36.2784 22.3539V24.4893C36.2784 25.6905 37.2627 26.6748 38.4638 26.6748H40.9662C42.1841 26.6748 43.1517 25.6905 43.1517 24.4893V22.2538C43.1517 22.2538 43.1517 22.2372 43.1517 22.2205V6.23828H40.666H40.6493Z" fill="#585858"/>
<path fill-rule="evenodd" clip-rule="evenodd" d="M20.9118 8.54052C20.9118 9.55817 20.0777 10.3923 19.0601 10.3923C18.0424 10.3923 17.2082 9.55817 17.2082 8.54052C17.2082 7.52286 18.0424 6.68872 19.0601 6.68872C20.0777 6.68872 20.9118 7.52286 20.9118 8.54052ZM19.0601 6.23828C17.7922 6.23828 16.7578 7.27262 16.7578 8.54052C16.7578 9.80841 17.7922 10.8428 19.0601 10.8428C20.328 10.8428 21.3622 9.80841 21.3622 8.54052C21.3622 7.27262 20.328 6.23828 19.0601 6.23828Z" fill="#585858"/>
<path fill-rule="evenodd" clip-rule="evenodd" d="M19.411 8.09025C19.411 8.30712 19.2775 8.4239 19.0774 8.4239H18.727V7.75659H18.994C19.1274 7.75659 19.1941 7.75659 19.2442 7.78996C19.3777 7.84 19.411 7.97347 19.411 8.07356V8.09025ZM19.5445 8.7242C19.778 8.60742 19.9282 8.35717 19.9282 8.05688C19.9282 7.73991 19.7781 7.48966 19.5111 7.37288C19.3943 7.32284 19.2776 7.30615 19.044 7.30615H18.2266V9.74185H18.727V8.85766H19.0774L19.5445 9.74185H20.1117L19.5945 8.80761C19.5945 8.80761 19.5445 8.74088 19.5445 8.70751V8.7242Z" fill="#585858"/>
</svg>
