<svg width="97" height="65" viewBox="0 0 97 65" fill="none" xmlns="http://www.w3.org/2000/svg">
<path d="M64.7601 37.9969C63.7294 37.9969 63.1719 38.9937 63.1719 40.7846C63.1719 42.5755 63.7463 43.5724 64.7601 43.5724C65.7738 43.5724 66.3482 42.5755 66.3482 40.7846C66.3482 38.9937 65.7738 37.98 64.7601 37.98V37.9969Z" fill="#585858"/>
<path d="M85.8616 12.8739C85.8616 11.8433 85.0168 10.9985 83.9862 10.9985H81.4688V14.7662H83.9862C85.0168 14.7662 85.8616 13.9215 85.8616 12.8908V12.8739Z" fill="#585858"/>
<path d="M21.9641 19.3784H27.1679C29.3136 19.3784 31.0538 17.6381 31.0538 15.4924C31.0538 13.3467 29.3136 11.6064 27.1679 11.6064H21.9641C19.8183 11.6064 18.0781 13.3467 18.0781 15.4924C18.0781 17.6381 19.8183 19.3784 21.9641 19.3784Z" fill="#585858"/>
<path d="M0.777344 0.032959V52.6285H66.4331L81.47 64.0499V52.6285H96.7773V0.032959H0.777344ZM58.0529 14.411C58.0529 9.68026 61.8882 5.86189 66.602 5.86189C71.3328 5.86189 75.1511 9.69716 75.1511 14.411V22.5039C75.1511 27.2346 71.3159 31.053 66.602 31.053C61.8713 31.053 58.0529 27.2177 58.0529 22.5039V14.411ZM7.68758 7.41627C7.68758 7.16284 7.89031 6.9601 8.14374 6.9601H11.8438C12.0973 6.9601 12.3001 7.16284 12.3001 7.41627V13.4311H13.6686C14.5978 9.69717 17.9431 6.9432 21.9642 6.9432H27.168C31.8988 6.9432 35.7171 10.7785 35.7171 15.4923C35.7171 20.223 31.8819 24.0414 27.168 24.0414H21.9642C17.9431 24.0414 14.5809 21.2537 13.6686 17.5198H12.3001V23.5852C12.3001 23.8387 12.0973 24.0414 11.8438 24.0414H8.14374C7.89031 24.0414 7.68758 23.8387 7.68758 23.5852V7.39938V7.41627ZM19.6158 32.7595C19.6158 33.0129 19.413 33.2156 19.1596 33.2156H12.2831V35.8513H17.2673C17.5207 35.8513 17.7235 36.0541 17.7235 36.3075V39.5008C17.7235 39.7542 17.5207 39.9569 17.2673 39.9569H12.2831V45.2621C12.2831 45.5155 12.0804 45.7183 11.8269 45.7183H8.12688C7.87345 45.7183 7.67067 45.5155 7.67067 45.2621V29.0762C7.67067 28.8228 7.87345 28.6201 8.12688 28.6201H19.1596C19.413 28.6201 19.6158 28.8228 19.6158 29.0762V32.7764V32.7595ZM44.9759 45.2452C44.9759 45.4986 44.7731 45.7014 44.5197 45.7014H40.8195C40.5661 45.7014 40.3634 45.4986 40.3634 45.2452V35.9189C40.3634 35.6148 40.0086 35.4458 39.772 35.6486L33.4194 40.9031C33.4194 40.9031 33.3855 40.9031 33.3686 40.92C33.3349 40.92 33.318 40.9538 33.2842 40.9538C33.2504 40.9538 33.2335 40.9706 33.1997 40.9706C33.1659 40.9706 33.149 40.9706 33.1152 40.9706C33.0814 40.9706 33.0646 40.9706 33.0308 40.9706C32.997 40.9706 32.98 40.9706 32.9463 40.9538C32.9125 40.9538 32.8956 40.9369 32.8618 40.92C32.8618 40.92 32.828 40.92 32.8111 40.9031L26.4584 35.6486C26.2219 35.4627 25.8671 35.6148 25.8671 35.9189V45.2452C25.8671 45.4986 25.6643 45.7014 25.4109 45.7014H21.7108C21.4574 45.7014 21.2546 45.4986 21.2546 45.2452V29.0594C21.2546 28.8059 21.4574 28.6032 21.7108 28.6032H22.3021H23.8227C24.1775 28.6032 24.5154 28.7215 24.7689 28.9411L32.8956 35.6655C33.0138 35.7668 33.1828 35.7668 33.2842 35.6655L41.4109 28.9411C41.6812 28.7215 42.0191 28.6032 42.357 28.6032H43.8776H44.469C44.7224 28.6032 44.9252 28.8059 44.9252 29.0594V45.2452H44.9759ZM51.7509 23.6021V15.7288C51.7509 15.4078 51.3623 15.2558 51.1427 15.5092L49.5883 17.3001L47.206 20.0541C47.206 20.0541 47.1554 20.1048 47.1216 20.1217C47.0878 20.1386 47.0709 20.1555 47.0371 20.1723C47.0202 20.1723 46.9864 20.1723 46.9695 20.1892C46.9357 20.1892 46.9188 20.1892 46.885 20.1892C46.8512 20.1892 46.8343 20.1892 46.8006 20.1892C46.7837 20.1892 46.7499 20.1892 46.733 20.1723C46.6992 20.1723 46.6823 20.1386 46.6485 20.1217C46.6147 20.1048 46.5809 20.0879 46.564 20.0541L44.1818 17.3001L42.6274 15.5092C42.4246 15.2727 42.036 15.4247 42.036 15.7288V23.619C42.036 23.8725 41.8333 24.0752 41.5799 24.0752H37.8798C37.6263 24.0752 37.4236 23.8725 37.4236 23.619V7.41627C37.4236 7.16284 37.6263 6.9601 37.8798 6.9601H40.0593C40.431 6.9601 40.7858 7.12905 41.0392 7.39938L42.036 8.54826L46.6316 13.8365C46.7668 13.9886 47.0202 13.9886 47.1553 13.8365L51.7509 8.54826L52.7477 7.39938C53.0012 7.11216 53.356 6.9601 53.7277 6.9601H55.9072C56.1607 6.9601 56.3634 7.16284 56.3634 7.41627V23.619C56.3634 23.8725 56.1607 24.0752 55.9072 24.0752H52.2071C51.9537 24.0752 51.7509 23.8725 51.7509 23.619V23.6021ZM58.8977 45.6338H56.2789V38.1153H54.8428V35.902H58.9146V45.6338H58.8977ZM64.7435 45.8872C62.1585 45.8872 60.4859 43.8767 60.4859 40.7848C60.4859 37.6929 62.1585 35.6824 64.7435 35.6824C67.3285 35.6824 69.0012 37.676 69.0012 40.7848C69.0012 43.8936 67.3285 45.8872 64.7435 45.8872ZM77.2124 45.6338H69.9811V45.0425C73.9009 40.43 74.4416 39.6866 74.4416 38.8418C74.4416 38.3181 74.0867 37.9633 73.5968 37.9633C73.0561 37.9633 72.7182 38.335 72.7182 38.9094V39.0953H70.1501V38.9094C70.1501 36.9495 71.4341 35.6486 73.563 35.6486C75.6918 35.6486 77.0603 36.9157 77.0603 38.7404C77.0603 39.9569 76.6041 40.9031 74.526 43.3191H77.2293V45.6338H77.2124ZM80.9294 44.6032C80.9294 45.3128 80.3549 45.8703 79.6622 45.8703H79.6284C78.9188 45.8703 78.3613 45.2959 78.3613 44.6032C78.3613 43.8936 78.9357 43.336 79.6284 43.336H79.6622C80.3718 43.336 80.9294 43.9105 80.9294 44.6032ZM81.4532 23.5852C81.4532 23.8387 81.2504 24.0414 80.9969 24.0414H77.2968C77.0434 24.0414 76.8407 23.8387 76.8407 23.5852V7.39938C76.8407 7.14595 77.0434 6.9432 77.2968 6.9432H83.9537C87.2145 6.9432 89.8671 9.59579 89.8671 12.8566C89.8671 16.1174 87.2145 18.77 83.9537 18.77H81.4362V23.5683L81.4532 23.5852ZM85.7108 45.8872C83.1258 45.8872 81.4532 43.8767 81.4532 40.7848C81.4532 37.6929 83.1258 35.6824 85.7108 35.6824C88.2958 35.6824 89.9684 37.676 89.9684 40.7848C89.9684 43.8936 88.2958 45.8872 85.7108 45.8872Z" fill="#585858"/>
<path d="M85.7288 37.9969C84.6982 37.9969 84.1406 38.9937 84.1406 40.7846C84.1406 42.5755 84.7151 43.5724 85.7288 43.5724C86.7425 43.5724 87.317 42.5755 87.317 40.7846C87.317 38.9937 86.7425 37.98 85.7288 37.98V37.9969Z" fill="#585858"/>
<path d="M66.6204 26.3897C68.7661 26.3897 70.5063 24.6495 70.5063 22.5038V14.4108C70.5063 12.2651 68.7661 10.5249 66.6204 10.5249C64.4746 10.5249 62.7344 12.2651 62.7344 14.4108V22.5038C62.7344 24.6495 64.4746 26.3897 66.6204 26.3897Z" fill="#585858"/>
</svg>
