<svg width="13" height="30" viewBox="0 0 13 30" fill="none" xmlns="http://www.w3.org/2000/svg">
<path d="M1.08388 18.5147C1.10409 18.5147 1.1243 18.5147 1.14345 18.5126C1.70187 18.4807 2.12734 18.002 2.09436 17.4436C1.83483 13.0007 2.33793 10.6319 2.9038 9.45652V13.641V16.0353V28.4281C2.9038 29.2918 3.60372 29.9907 4.46742 29.9907C5.33005 29.9907 6.03098 29.2918 6.03098 28.4281V17.0128H6.61709V28.4281C6.61709 29.2918 7.31698 29.9907 8.17962 29.9907C9.04332 29.9907 9.74323 29.2918 9.74323 28.4281V16.0353V13.641V9.45652C10.3091 10.6329 10.8122 13.0006 10.5527 17.4446C10.5197 18.002 10.9452 18.4807 11.5036 18.5137C11.5238 18.5147 11.5429 18.5147 11.5632 18.5147C12.095 18.5147 12.5406 18.0999 12.5726 17.5628C12.8853 12.2199 12.2162 8.73536 10.5867 7.20261C9.87616 6.53569 9.1816 6.42183 8.82634 6.41332C8.80613 6.41226 8.78697 6.41016 8.76676 6.41016H3.88131C3.86003 6.41016 3.83982 6.41226 3.81961 6.41332C3.46434 6.42183 2.77085 6.53569 2.06138 7.20261C0.430776 8.7343 -0.237227 12.2199 0.0744281 17.5628C0.106338 18.0999 0.552041 18.5147 1.08388 18.5147Z" fill="#5A5A5A"/>
<path d="M6.32579 5.69039C7.89721 5.69039 9.1711 4.4165 9.1711 2.84507C9.1711 1.27365 7.89721 -0.000244141 6.32579 -0.000244141C4.75436 -0.000244141 3.48047 1.27365 3.48047 2.84507C3.48047 4.4165 4.75436 5.69039 6.32579 5.69039Z" fill="#5A5A5A"/>
</svg>
