<svg width="85" height="64" viewBox="0 0 85 64" fill="none" xmlns="http://www.w3.org/2000/svg">
<path d="M69.3942 23.8272C71.6269 29.5347 71.553 36.1884 69.1724 41.9993C70.0005 41.1861 70.932 40.565 71.9522 40.1363C73.7857 35.0055 74.0666 29.2685 72.6028 23.916C71.4938 23.8864 70.3701 23.8568 69.3942 23.8272ZM77.0386 24.0195C76.1367 23.9899 74.9242 23.9603 73.623 23.9307C75.2791 28.8545 75.5452 34.3105 74.3476 39.4857C74.7764 39.4265 75.2199 39.397 75.6783 39.397C75.9444 39.397 76.2106 39.397 76.4768 39.4265C77.9258 34.488 78.1476 29.1354 77.0386 24.0047V24.0195ZM63.2137 28.3222C63.8199 31.0428 63.7755 33.9409 63.0362 36.6763C62.3856 39.116 61.1732 41.4226 59.5319 43.3892V45.4592C61.9568 43.2413 63.8347 40.4024 64.8549 37.2234C66.0526 33.5565 66.1413 29.5199 65.0767 25.7494C64.5296 26.5035 63.879 27.4055 63.2137 28.3222ZM59.5319 40.7425C59.8868 40.2545 60.2121 39.7518 60.5078 39.2343C62.1786 36.3067 62.8588 32.8024 62.43 29.4164C61.7055 30.4218 61.0105 31.3681 60.4782 32.0926C60.4782 34.2662 60.0051 36.4693 59.0144 38.4359C58.8074 38.8647 58.5561 39.2787 58.3047 39.6927H59.5319V40.7425ZM68.3148 23.7829C67.3833 23.7533 66.718 23.7385 66.5405 23.7385C66.4518 23.8568 66.1709 24.2413 65.7716 24.8031C67.6347 29.4755 67.6495 34.8724 65.8899 39.6779H67.9008C69.8526 34.6802 70.104 28.9728 68.3296 23.7829H68.3148Z" fill="#585858"/>
<path d="M36.1692 15.0743C40.5902 13.3147 45.4992 13.3591 49.6836 14.8821C50.5856 14.261 51.4875 13.64 52.2712 13.1077C52.2712 13.0782 52.2712 13.0634 52.2712 13.0486C46.7412 11.4369 40.7824 12.2649 36.1692 15.0743ZM39.91 16.4642C42.1871 16.1832 44.4493 16.405 46.5194 17.0704C47.1552 16.6268 47.9093 16.1093 48.7077 15.5622C45.6618 15.0447 42.6011 15.3996 39.91 16.4642ZM40.5902 9.55908C35.9326 10.8898 31.8073 13.7435 28.9388 17.4548C32.1769 14.0393 36.4501 11.7474 40.9155 10.949C45.1295 10.1801 49.5062 10.7124 53.3062 12.3832C53.9864 11.9101 54.4595 11.5848 54.5926 11.4961V9.86959C50.0237 8.33184 45.0704 8.25791 40.5754 9.5443L40.5902 9.55908ZM31.7777 4.20653C24.7248 8.18398 19.4314 14.9116 17.2578 22.4673C19.9784 15.0743 25.6563 8.98243 32.5762 5.72949C39.4812 2.43221 47.5692 2.04777 54.5778 4.47268C54.5778 4.47268 54.5926 4.47268 54.6074 4.45789V0.953602C46.8299 -0.83551 38.5349 0.362159 31.7777 4.22132V4.20653ZM36.1396 7.03067C30.1217 9.78087 25.331 14.8081 22.8469 20.7078C25.8041 15.0151 30.8905 10.5793 36.731 8.46491C42.542 6.32094 49.0626 6.48358 54.6074 8.76064C54.6074 7.78476 54.6074 6.64623 54.6074 5.5077C48.4268 3.82209 41.7879 4.38397 36.1248 7.01588L36.1396 7.03067Z" fill="#585858"/>
<path d="M70.5494 14.527C70.5494 14.527 73.6397 5.77362 74.1276 4.4133C72.7525 4.85688 63.9252 7.72538 63.9252 7.72538C63.9252 7.72538 56.5618 2.0771 55.4085 1.18994C55.4085 2.63897 55.4085 11.9246 55.4085 11.9246C55.4085 11.9246 47.7641 17.1884 46.5664 18.0017C47.9415 18.4453 56.7688 21.3138 56.7688 21.3138C56.7688 21.3138 59.4155 30.215 59.8147 31.6048C60.6723 30.4367 66.1284 22.9254 66.1284 22.9254C66.1284 22.9254 75.414 23.162 76.863 23.2064C76.0054 22.0383 70.5494 14.527 70.5494 14.527Z" fill="#585858"/>
<path d="M68.4335 9.98744L66.6 15.1478L69.8234 19.5688L64.3525 19.4209L61.1439 23.8568L59.5766 18.6077L54.3867 16.9221L58.8817 13.817V8.34619L63.2288 11.6731L68.4335 9.98744Z" fill="white"/>
<path d="M78.6074 51.5809C77.8385 52.4681 76.8479 52.9116 75.6798 52.9116C74.5117 52.9116 73.5358 52.4681 72.7521 51.5809C71.998 50.7381 71.6284 49.6883 71.6284 48.4906C71.6284 47.2929 72.0128 46.2431 72.7817 45.3707C73.5358 44.5132 74.5265 44.0696 75.6946 44.0696C76.8627 44.0696 77.8385 44.4984 78.6074 45.3707C79.3763 46.2431 79.7607 47.2929 79.7607 48.4906C79.7607 49.6883 79.3763 50.7233 78.637 51.5661L78.6074 51.5809ZM44.9987 52.6455C45.117 52.2611 46.6695 46.8641 46.9357 45.903C47.2166 46.8641 48.7692 52.2611 48.8727 52.6455H44.9839H44.9987ZM32.6228 50.7233C32.7411 50.3536 33.7761 46.8937 34.0423 46.0361C34.2936 46.8937 35.3287 50.3536 35.4469 50.7233H32.6376H32.6228ZM81.6533 42.5762C80.0417 40.9941 78.0308 40.1956 75.6798 40.1956C73.3288 40.1956 71.3179 40.9941 69.7062 42.5762C69.1 43.1824 68.5972 43.833 68.2128 44.5575V40.5061H64.7529C64.7529 40.5061 59.3264 48.1949 58.7497 49.0081V40.5061H54.4026V52.6455H53.2493C53.1754 52.4089 49.3754 40.4914 49.3754 40.4914L49.2127 40.5357C48.4882 40.7131 47.7193 40.8019 46.9357 40.8019C46.152 40.8019 45.3684 40.7131 44.6439 40.5209L44.4812 40.4766C44.4812 40.4766 40.8438 51.4182 40.5481 52.2906C40.2228 51.433 36.1862 40.4914 36.1862 40.4914H31.8391L25.9099 56.4899H30.5675C30.5675 56.4899 31.3216 54.4346 31.3956 54.2424H36.5855C36.6594 54.4494 37.3396 56.4899 37.3396 56.4899H54.5653H57.9661C57.9661 56.4899 63.3926 48.7124 63.9692 47.8844V56.4899H68.198V52.4237C68.5825 53.1334 69.0852 53.7988 69.6914 54.405C71.3031 55.9871 73.314 56.7856 75.665 56.7856C78.016 56.7856 80.0269 55.9871 81.6385 54.405C83.2502 52.8229 84.0635 50.8268 84.0635 48.4906C84.0635 46.1544 83.2502 44.1583 81.6385 42.5762H81.6533ZM22.7457 47.7217H21.415V44.3505H22.7457C24.2539 44.3505 24.9488 44.8828 24.9488 46.0213C24.9488 47.1599 24.2243 47.7365 22.7457 47.7365V47.7217ZM28.9411 45.7552C28.9411 44.04 28.3201 42.6945 27.1076 41.7482C26.0134 40.9201 24.5644 40.4914 22.8049 40.4914H17.2453V56.4899H21.415V51.5661H23.1006C24.9193 51.5661 26.3683 51.0486 27.4033 50.0284C28.4384 49.0081 28.9559 47.5591 28.9559 45.7404L28.9411 45.7552ZM12.2476 33.9116H9.15734C9.48263 33.468 12.011 29.9785 12.5729 29.2244C12.5138 30.1411 12.2624 33.6454 12.2476 33.9116ZM0.226562 39.6929H4.95811C4.95811 39.6929 6.49585 37.5785 6.59936 37.4454H11.9963C11.9815 37.7559 11.8336 39.6929 11.8336 39.6929H16.4321V23.6944H12.9426L0.226562 39.6929ZM21.4002 35.819V33.2018H23.278C24.7714 33.2018 24.934 33.9411 24.934 34.4882C24.934 35.0353 24.7566 35.819 23.1597 35.819H21.3854H21.4002ZM21.4002 27.5388H22.8936C24.0173 27.5388 24.18 28.0267 24.18 28.559C24.18 29.4462 23.7955 29.8158 22.8788 29.8158H21.4002V27.5536V27.5388ZM29.1037 34.71C29.1037 32.9357 28.2905 31.7232 26.7084 31.0874C27.7878 30.4073 28.3496 29.3279 28.3496 27.8641C28.3496 26.4742 27.8025 25.3948 26.7379 24.6555C25.8212 24.0197 24.6235 23.6944 23.2041 23.6944H17.2453V39.6929H23.2041C27.1224 39.6929 29.1185 38.0221 29.1185 34.71H29.1037ZM31.8391 39.6929H36.1862V27.5536H39.0252V23.6944H29.015V27.5536H31.8539V39.6929H31.8391ZM44.0081 28.5738C44.7621 27.7162 45.7528 27.2726 46.9209 27.2726C48.089 27.2726 49.0797 27.7162 49.8338 28.5738C50.6026 29.4462 50.9871 30.496 50.9871 31.6937C50.9871 32.8913 50.6026 33.9263 49.8633 34.7839C49.0797 35.6859 48.1186 36.1147 46.9357 36.1147C45.7528 36.1147 44.7917 35.6859 44.0081 34.7839C43.254 33.9411 42.8843 32.8913 42.8843 31.6937C42.8843 30.496 43.2688 29.4462 44.0376 28.5738H44.0081ZM40.9474 37.6081C42.559 39.1902 44.5699 39.9886 46.9209 39.9886C49.2719 39.9886 51.2828 39.1902 52.8945 37.6081C54.5061 36.026 55.3342 34.0298 55.3342 31.6937C55.3342 29.3575 54.5209 27.3613 52.8945 25.7792C51.2828 24.1971 49.2719 23.3987 46.9209 23.3987C44.5699 23.3987 42.559 24.1971 40.9474 25.7792C39.3357 27.3613 38.5224 29.3575 38.5224 31.6937C38.5224 34.0298 39.3357 36.026 40.9474 37.6081Z" fill="#585858"/>
<path d="M31.1444 59.5947H32.1498C32.7413 59.5947 33.0222 59.4173 33.0222 59.0328C33.0222 58.6484 32.7265 58.4562 32.1498 58.4562H30.7599C30.0798 58.4562 29.9023 58.7223 29.9023 59.3286V63.1138C29.9023 63.7052 30.0798 63.8974 30.7451 63.8974H32.1942C32.7856 63.8974 33.0666 63.72 33.0666 63.3208C33.0666 62.9216 32.7708 62.7441 32.1942 62.7441H31.1444V61.7239H32.0167C32.6082 61.7239 32.8891 61.5465 32.8891 61.1472C32.8891 60.748 32.5934 60.5706 32.0167 60.5706H31.1444V59.5947ZM34.3825 58.3527C33.9685 58.3527 33.7615 58.6484 33.7615 59.2251V63.0546C33.7615 63.6461 33.9537 63.927 34.3825 63.927C34.8113 63.927 35.0035 63.6313 35.0035 63.0546V61.4577L36.8518 63.4982C37.0736 63.7496 37.251 63.9418 37.5172 63.9418C37.7981 63.9418 38.0938 63.6904 38.0938 63.3651C38.0938 63.2025 37.9903 62.9807 37.7833 62.7589L36.1273 60.955L37.4876 59.5208C37.6946 59.3138 37.7981 59.1068 37.7981 58.9145C37.7981 58.604 37.5319 58.3527 37.2362 58.3527C37.0144 58.3527 36.837 58.5153 36.6004 58.7815L35.0035 60.6002V59.2398C35.0035 58.6484 34.8113 58.3675 34.3825 58.3675V58.3527ZM39.8829 61.7091L40.5483 59.6982L41.1693 61.7091H39.8829ZM40.5779 58.3527C40.1195 58.3527 39.8238 58.6188 39.6316 59.1511L38.2269 62.9807C38.1825 63.099 38.1678 63.2173 38.1678 63.3356C38.1678 63.6757 38.4191 63.927 38.7592 63.927C39.0253 63.927 39.2471 63.7052 39.3506 63.3651L39.5281 62.8329H41.539L41.6868 63.3208C41.8199 63.72 42.0121 63.927 42.3374 63.927C42.6775 63.927 42.9436 63.6904 42.9436 63.3504C42.9436 63.2469 42.9141 63.1138 42.8549 62.9659L41.4798 59.0624C41.3172 58.604 40.9919 58.3379 40.5779 58.3379V58.3527ZM43.8604 58.4414C43.2689 58.4414 42.988 58.6336 42.988 59.018C42.988 59.4025 43.2837 59.5799 43.8604 59.5799H44.3188V63.0546C44.3188 63.6461 44.511 63.927 44.9398 63.927C45.3686 63.927 45.5608 63.6313 45.5608 63.0546V59.5799H46.0191C46.6106 59.5799 46.8915 59.4025 46.8915 59.018C46.8915 58.6336 46.5958 58.4414 46.0191 58.4414H43.8604ZM48.6067 59.5799H49.6122C50.2036 59.5799 50.4845 59.4025 50.4845 59.018C50.4845 58.6336 50.1888 58.4414 49.6122 58.4414H48.2223C47.5421 58.4414 47.3647 58.7075 47.3647 59.3138V63.099C47.3647 63.6904 47.5421 63.8827 48.2075 63.8827H49.6565C50.248 63.8827 50.5289 63.7052 50.5289 63.306C50.5289 62.9068 50.2332 62.7293 49.6565 62.7293H48.6067V61.7091H49.4791C50.0705 61.7091 50.3515 61.5317 50.3515 61.1325C50.3515 60.7332 50.0557 60.5558 49.4791 60.5558H48.6067V59.5799ZM52.4659 59.5799H52.9982C53.5748 59.5799 53.841 59.8017 53.841 60.2896C53.841 60.7776 53.56 61.0142 52.9982 61.0142H52.4659V59.5799ZM52.0814 58.4414C51.4013 58.4414 51.2238 58.7075 51.2238 59.3138V63.0546C51.2238 63.6461 51.4161 63.927 51.8448 63.927C52.2736 63.927 52.4659 63.6313 52.4659 63.0546V62.1231H53.2939C54.4915 62.1231 55.1865 61.4282 55.1865 60.2896C55.1865 59.1511 54.4324 58.4414 53.1904 58.4414H52.0814ZM56.5172 58.3527C56.1032 58.3527 55.8962 58.6484 55.8962 59.2251V63.1877C55.8962 63.7052 56.0589 63.927 56.4581 63.927C56.7242 63.927 56.946 63.8087 57.1678 63.513L59.4005 60.5558V63.0546C59.4005 63.6461 59.5927 63.927 60.0215 63.927C60.4503 63.927 60.6425 63.6313 60.6425 63.0546V59.1955C60.6425 58.6484 60.4799 58.3379 60.0807 58.3379C59.8145 58.3379 59.6223 58.5005 59.4153 58.7667L57.1383 61.783V59.2251C57.1383 58.6336 56.946 58.3527 56.5172 58.3527ZM62.8457 60.541V59.2398C62.8457 58.6484 62.6535 58.3675 62.2247 58.3675C61.7959 58.3675 61.6036 58.6632 61.6036 59.2398V63.0694C61.6036 63.6609 61.7959 63.9418 62.2247 63.9418C62.6535 63.9418 62.8457 63.6461 62.8457 63.0694V61.6943H65.1227V63.0694C65.1227 63.6609 65.3149 63.9418 65.7437 63.9418C66.1725 63.9418 66.3647 63.6461 66.3647 63.0694V59.2398C66.3647 58.6484 66.1725 58.3675 65.7437 58.3675C65.3149 58.3675 65.1227 58.6632 65.1227 59.2398V60.541H62.8457ZM68.5531 59.506H69.869C70.4901 59.506 70.7414 59.3729 70.7414 58.9737C70.7414 58.604 70.4309 58.4562 69.869 58.4562H68.1834C67.5476 58.4562 67.3258 58.6632 67.3258 59.3286V63.1138C67.3258 63.7348 67.5328 63.8974 68.1686 63.8974H69.3959C70.6231 63.8974 71.3328 63.1581 71.3328 62.271C71.3328 60.955 70.3274 60.5854 69.248 60.5854H68.5826V59.5208L68.5531 59.506ZM68.5531 61.5908H69.1445C69.7212 61.5908 70.0021 61.7978 70.0021 62.1971C70.0021 62.5963 69.7064 62.8181 69.1593 62.8181H68.5383V61.5908H68.5531ZM72.3087 58.3527C72.0278 58.3527 71.6729 58.5301 71.6729 58.8998C71.6729 59.0476 71.7617 59.299 71.9243 59.5651L73.3142 61.7387L72.5601 62.9511C72.4418 63.1286 72.3974 63.2912 72.3974 63.4539C72.3974 63.7348 72.634 63.9418 72.9297 63.9418C73.2846 63.9418 73.4768 63.6757 73.7134 63.2173L75.7243 59.4764C75.8426 59.2546 75.9313 59.0624 75.9313 58.8998C75.9313 58.5153 75.7243 58.3527 75.4729 58.3527C75.1181 58.3527 74.9554 58.5893 74.7928 58.9293L73.95 60.6593L72.9593 58.8702C72.8115 58.5893 72.634 58.3379 72.3235 58.3379L72.3087 58.3527ZM77.6761 59.5799H78.2084C78.785 59.5799 79.0512 59.8017 79.0512 60.2896C79.0512 60.7776 78.7702 61.0142 78.2084 61.0142H77.6761V59.5799ZM77.2916 58.4414C76.5967 58.4414 76.4341 58.7075 76.4341 59.3138V63.0546C76.4341 63.6461 76.6263 63.927 77.0551 63.927C77.4839 63.927 77.6761 63.6313 77.6761 63.0546V62.1231H78.5041C79.7018 62.1231 80.3967 61.4282 80.3967 60.2896C80.3967 59.1511 79.6426 58.4414 78.4006 58.4414H77.2916ZM81.964 58.4414C81.2839 58.4414 81.1064 58.7075 81.1064 59.3138V63.0546C81.1064 63.6461 81.2986 63.927 81.7274 63.927C82.1562 63.927 82.3485 63.6313 82.3485 63.0546V59.5799H83.3539C83.9454 59.5799 84.2263 59.4025 84.2263 59.018C84.2263 58.6336 83.9306 58.4414 83.3539 58.4414H81.964Z" fill="#585858"/>
<path d="M43.892 20.7371H44.2764C44.4982 20.7371 44.6017 20.6779 44.6017 20.5301C44.6017 20.3822 44.4982 20.3083 44.2764 20.3083H43.7589C43.5075 20.3083 43.4336 20.4118 43.4336 20.6336V22.0382C43.4336 22.26 43.5075 22.3635 43.6702 22.3635C43.8328 22.3635 43.9068 22.26 43.9068 22.0382V21.5355H44.232C44.4538 21.5355 44.5573 21.4616 44.5573 21.3137C44.5573 21.1659 44.4538 21.0919 44.232 21.0919H43.9068V20.7223L43.892 20.7371ZM45.2818 20.2787C45.0896 20.2787 45.0009 20.397 44.9713 20.604L44.72 21.9939C44.72 21.9939 44.7052 22.0974 44.7052 22.127C44.7052 22.2748 44.7939 22.3635 44.927 22.3635C45.0748 22.3635 45.1488 22.2748 45.1636 22.0678L45.3262 20.8849L45.6219 22.1417C45.6663 22.3192 45.7402 22.3783 45.8881 22.3783C46.0655 22.3783 46.1099 22.2748 46.1394 22.1417L46.4499 20.8849L46.5978 22.0974C46.6126 22.2748 46.7013 22.3635 46.8196 22.3635C46.9379 22.3635 47.0562 22.2748 47.0562 22.127C47.0562 22.0974 47.0562 22.0678 47.0562 22.0087L46.8344 20.604C46.79 20.3822 46.7161 20.2639 46.5091 20.2639C46.3464 20.2639 46.2281 20.3674 46.1986 20.5449L45.9029 21.7573L45.5924 20.5449C45.548 20.3526 45.4445 20.2639 45.2671 20.2639L45.2818 20.2787Z" fill="#585858"/>
<path d="M30.273 18.2532C30.6575 18.2532 30.7905 18.4602 30.7905 18.9185V21.7131C30.7905 22.1567 30.6427 22.3785 30.3322 22.3785C30.0217 22.3785 29.8738 22.1567 29.8738 21.7131V19.1256H29.7851C29.3859 19.1256 29.1641 18.9777 29.1641 18.6968C29.1641 18.4158 29.3859 18.268 29.8294 18.268H30.2878L30.273 18.2532Z" fill="#585858"/>
<path d="M34.8422 20.2935C34.8422 21.6391 34.162 22.4523 33.1418 22.4523C32.1216 22.4523 31.4414 21.6538 31.4414 20.2935C31.4414 18.9332 32.1216 18.1348 33.1418 18.1348C34.162 18.1348 34.8422 18.9332 34.8422 20.2935ZM32.4025 20.2935C32.4025 21.1363 32.6982 21.5947 33.1418 21.5947C33.5854 21.5947 33.8811 21.1363 33.8811 20.2935C33.8811 19.4507 33.5854 19.0071 33.1418 19.0071C32.6982 19.0071 32.4025 19.4655 32.4025 20.2935Z" fill="#585858"/>
<path d="M37.2227 18.2528C37.6219 18.2528 37.8141 18.4007 37.8141 18.6816C37.8141 18.9626 37.6219 19.1104 37.2522 19.1104H36.2911L36.232 19.5984C36.3799 19.5688 36.5129 19.554 36.6312 19.554C37.3261 19.554 37.8584 20.1159 37.8584 20.8995C37.8584 21.7719 37.2374 22.4373 36.3207 22.4373C35.5962 22.4373 35.0195 22.0381 35.0195 21.624C35.0195 21.3875 35.1822 21.21 35.404 21.21C35.6849 21.21 35.9067 21.5649 36.3059 21.5649C36.6164 21.5649 36.8678 21.284 36.8678 20.9291C36.8678 20.5742 36.6756 20.3672 36.3651 20.3672C36.1285 20.3672 35.9067 20.5151 35.6849 20.5151C35.4483 20.5151 35.33 20.382 35.33 20.1159C35.33 20.0715 35.33 19.9532 35.3596 19.7906L35.4927 18.726C35.5371 18.2972 35.7145 18.238 36.0989 18.238H37.2227V18.2528Z" fill="#585858"/>
<path d="M39.3358 21.8464C39.3358 22.1569 39.0992 22.3639 38.8183 22.3639C38.5374 22.3639 38.3008 22.1569 38.3008 21.8464C38.3008 21.5654 38.5374 21.3289 38.8183 21.3289C39.0992 21.3289 39.3358 21.5654 39.3358 21.8464Z" fill="#585858"/>
<path d="M43.0336 20.2935C43.0336 21.6391 42.3534 22.4523 41.3332 22.4523C40.313 22.4523 39.6328 21.6538 39.6328 20.2935C39.6328 18.9332 40.313 18.1348 41.3332 18.1348C42.3534 18.1348 43.0336 18.9332 43.0336 20.2935ZM40.5939 20.2935C40.5939 21.1363 40.8896 21.5947 41.3332 21.5947C41.7768 21.5947 42.0725 21.1363 42.0725 20.2935C42.0725 19.4507 41.7768 19.0071 41.3332 19.0071C40.8896 19.0071 40.5939 19.4655 40.5939 20.2935Z" fill="#585858"/>
</svg>
