<svg width="15" height="30" viewBox="0 0 15 30" fill="none" xmlns="http://www.w3.org/2000/svg">
<path d="M4.65625 27.9485C4.65625 28.6516 5.22741 29.2228 5.93156 29.2228C6.63465 29.2228 7.20584 28.6516 7.20584 27.9485V21.6441C6.22939 21.6324 5.37848 21.5389 4.65625 21.4102V27.9485Z" fill="#E62F20"/>
<path d="M7.63281 21.6441V27.9485C7.63281 28.6516 8.20398 29.2228 8.90813 29.2228C9.61121 29.2228 10.1825 28.6516 10.1825 27.9485V21.4102C9.46022 21.5389 8.60926 21.6324 7.63281 21.6441Z" fill="#E62F20"/>
<path d="M1.89517 20.1154C1.89517 20.1154 3.80868 21.262 7.41877 21.262C11.0278 21.262 12.9414 20.1154 12.9414 20.1154L10.7534 9.36168C10.9353 9.59037 11.1225 9.86373 11.3118 10.186C12.0351 11.4241 12.7701 13.4058 13.1881 16.5691C13.2424 16.9861 13.5987 17.2892 14.0082 17.2892C14.0444 17.2892 14.0805 17.2871 14.1178 17.2829C14.5709 17.2222 14.89 16.8063 14.8304 16.3532C14.0146 10.1679 12.0011 7.8683 10.6662 7.01418C10.1205 6.66529 9.68868 6.55679 9.49828 6.52488C9.27916 6.46957 8.35587 6.25366 7.41877 6.25366C6.48168 6.25366 5.55843 6.46957 5.33932 6.52488C5.14892 6.55679 4.71601 6.66529 4.17141 7.01418C2.8365 7.8683 0.822987 10.1679 0.00715178 16.3532C-0.0524137 16.8063 0.266656 17.2222 0.71978 17.2829C1.1729 17.3424 1.58989 17.0233 1.64945 16.5691C2.06854 13.3962 2.80249 11.4135 3.52791 10.1765C3.71618 9.85524 3.90336 9.58507 4.08525 9.35638L1.89517 20.1154Z" fill="#E62F20"/>
<path d="M7.41968 5.68169C8.93295 5.68169 10.1597 4.45497 10.1597 2.9417C10.1597 1.42843 8.93295 0.20166 7.41968 0.20166C5.90641 0.20166 4.67969 1.42843 4.67969 2.9417C4.67969 4.45497 5.90641 5.68169 7.41968 5.68169Z" fill="#E62F20"/>
</svg>
