<svg width="62" height="78" viewBox="0 0 62 78" fill="none" xmlns="http://www.w3.org/2000/svg">
<path fill-rule="evenodd" clip-rule="evenodd" d="M60.7773 61.3881C60.7773 64.6171 58.4022 67.2406 55.4837 67.2406H6.07096C3.15246 67.2406 0.777344 64.6171 0.777344 61.3881V6.85252C0.777344 3.62355 3.15246 1 6.07096 1H55.4837C58.4022 1 60.7773 3.62355 60.7773 6.85252V61.3881Z" fill="white" stroke="#585858" stroke-miterlimit="10"/>
<path fill-rule="evenodd" clip-rule="evenodd" d="M10.635 25.8693V29.2225C10.635 29.5174 10.5419 29.7814 10.3245 29.9832C10.1227 30.1539 9.8743 30.2471 9.61039 30.2471C9.34648 30.2471 9.11365 30.1539 8.91184 29.9832C8.67898 29.7814 8.57031 29.5174 8.57031 29.2225V19.3648C8.57031 18.7283 8.97391 18.3247 9.61039 18.3247H13.4448C14.1744 18.3247 14.8109 18.5886 15.3232 19.1009C15.8355 19.6287 16.0994 20.2652 16.0994 20.9948V23.1992C16.0994 23.9288 15.8355 24.5653 15.3232 25.0931C14.8109 25.6054 14.1744 25.8848 13.4448 25.8848H10.635V25.8693ZM10.635 20.3894V23.8202H13.4448C13.6156 23.8202 13.7553 23.7581 13.8795 23.6494C14.0037 23.5252 14.0503 23.3855 14.0503 23.2147V21.0103C14.0503 20.8396 14.0037 20.6999 13.8795 20.5757C13.7553 20.4515 13.6156 20.4049 13.4448 20.4049H10.635V20.3894ZM18.1641 29.5485C18.0244 29.9832 17.6673 30.2315 17.2016 30.2315C16.9532 30.2315 16.7048 30.1384 16.5186 29.9832C16.2857 29.7969 16.1615 29.533 16.1615 29.2535C16.1615 29.1293 16.1926 28.9896 16.2391 28.881L19.0024 20.5912C19.1732 20.0789 19.3439 19.5511 19.5302 19.0233C19.6854 18.6041 20.0114 18.2471 20.4927 18.2471C20.9739 18.2471 21.3154 18.5886 21.4552 19.0388L24.7618 28.9275C24.7928 29.0362 24.8083 29.1293 24.8083 29.2535C24.8083 29.5485 24.6842 29.8124 24.4513 29.9987C24.2495 30.1539 24.0166 30.2471 23.7683 30.2471C23.6285 30.2471 23.4733 30.216 23.3491 30.1695C23.0697 30.0453 22.8834 29.8279 22.8057 29.533L22.1227 27.4993H18.8316C18.7229 27.8098 18.6298 28.1203 18.5212 28.4152L18.1486 29.5485H18.1641ZM20.4927 22.5782L19.5302 25.4347H21.4397L20.4771 22.5782H20.4927ZM27.3387 28.1979L28.3323 19.2251C28.3944 18.6662 28.7669 18.3092 29.3568 18.3092H32.648C33.2844 18.3092 33.6725 18.7128 33.6725 19.3493V28.1824H33.7657C34.3866 28.1824 34.7902 28.586 34.7902 29.207V30.2936C34.7902 30.5886 34.6971 30.868 34.4798 31.0543C34.278 31.2251 34.0296 31.3182 33.7657 31.3182C33.5018 31.3182 33.2689 31.2406 33.0671 31.0698C32.8187 30.868 32.7256 30.5886 32.7256 30.2936V30.2315H28.2081V30.2936C28.2081 30.5886 28.1149 30.8525 27.8976 31.0543C27.6958 31.2251 27.4474 31.3027 27.1835 31.3027C26.9196 31.3027 26.6867 31.2251 26.5004 31.0543C26.2521 30.8525 26.1589 30.5731 26.1589 30.2781V29.1914C26.1589 28.555 26.5626 28.1669 27.199 28.1669H27.3698L27.3387 28.1979ZM31.6078 20.3894H30.2728L29.3879 28.1979H31.6078V20.3894ZM41.745 23.3389L38.1745 29.7658C37.9571 30.1074 37.6622 30.3557 37.243 30.3557C36.9636 30.3557 36.7152 30.2315 36.5289 30.0297C36.3426 29.8124 36.2495 29.5485 36.2495 29.2535V19.3958C36.2495 19.1009 36.3426 18.837 36.56 18.6352C36.7618 18.4489 37.0102 18.3557 37.2896 18.3557C37.5535 18.3557 37.7864 18.4489 37.9727 18.6196C38.2055 18.8215 38.3142 19.1009 38.3142 19.3958V25.2949L41.8691 18.8836C42.0865 18.542 42.3814 18.2781 42.8161 18.2781C43.0955 18.2781 43.3439 18.4023 43.5302 18.6041C43.7165 18.8215 43.7941 19.1009 43.7941 19.3803V29.238C43.7941 29.533 43.701 29.7969 43.4836 29.9987C43.2818 30.1695 43.0334 30.2626 42.7695 30.2626C42.5056 30.2626 42.2728 30.1695 42.0865 29.9987C41.8691 29.8124 41.7605 29.533 41.7605 29.238V23.3389H41.745ZM52.9688 27.577C52.9688 28.3066 52.7049 28.9586 52.1926 29.4864C51.6803 29.9987 51.0438 30.2471 50.3142 30.2471H48.1253C47.3957 30.2471 46.7592 29.9987 46.2314 29.4864C45.7036 28.9741 45.4552 28.3066 45.4552 27.577V21.0103C45.4552 20.2807 45.7191 19.6287 46.2314 19.1164C46.7437 18.6041 47.3957 18.3402 48.1253 18.3402H50.3142C51.0438 18.3402 51.6803 18.6041 52.1926 19.1164C52.7049 19.6287 52.9688 20.2807 52.9688 21.0103V27.577ZM50.9196 27.577V21.0103C50.9196 20.8396 50.873 20.6999 50.7488 20.5757C50.6246 20.4515 50.4849 20.4049 50.3142 20.4049H48.1253C47.9546 20.4049 47.8148 20.4515 47.6751 20.5757C47.5509 20.6999 47.5043 20.8396 47.5043 21.0103V27.577C47.5043 27.7477 47.5509 27.903 47.6751 28.0271C47.7993 28.1513 47.939 28.1979 48.1098 28.1979H50.2987C50.4694 28.1979 50.6091 28.1358 50.7333 28.0116C50.8575 27.8874 50.9196 27.7477 50.9196 27.5614V27.577Z" fill="#585858"/>
<path fill-rule="evenodd" clip-rule="evenodd" d="M40.8276 48.4881L44.0721 38.7391C44.2273 38.3044 44.5533 37.9629 45.0501 37.9629C45.5469 37.9629 45.8884 38.3044 46.0281 38.7701L49.3037 48.5347C49.3347 48.6123 49.3658 48.8141 49.3658 48.8917C49.3658 49.1867 49.2416 49.4506 49.0087 49.6369C48.8069 49.8077 48.5741 49.8853 48.3101 49.8853C47.8444 49.8853 47.4718 49.6524 47.3321 49.1712L46.6646 47.1686H43.4511L42.7836 49.1712C42.6439 49.6214 42.2713 49.8697 41.8056 49.8697C41.5417 49.8697 41.3088 49.7766 41.107 49.6214C40.8742 49.4351 40.75 49.1712 40.75 48.8762C40.75 48.7365 40.781 48.6123 40.8276 48.4726V48.4881ZM45.966 45.0884L45.0501 42.3562L44.1342 45.0884H45.966Z" fill="#585858"/>
<path fill-rule="evenodd" clip-rule="evenodd" d="M36.7303 43.4737V39.0959C36.7303 38.801 36.8235 38.537 37.0408 38.3352C37.2426 38.1489 37.491 38.0403 37.7705 38.0403C38.0499 38.0403 38.2827 38.1334 38.4845 38.3042C38.7174 38.506 38.8106 38.7854 38.8106 39.0804V48.8449C38.8106 49.1399 38.7174 49.4193 38.5001 49.6211C38.2983 49.8074 38.0499 49.885 37.786 49.885C37.5221 49.885 37.2892 49.7919 37.0874 49.6211C36.8545 49.4193 36.7459 49.1399 36.7459 48.8449V45.5539H33.9826C33.253 45.5539 32.601 45.29 32.0887 44.7777C31.5764 44.2654 31.3125 43.6134 31.3125 42.8837V39.0959C31.3125 38.801 31.4057 38.537 31.623 38.3352C31.8248 38.1489 32.0887 38.0403 32.3681 38.0403C32.632 38.0403 32.8649 38.1334 33.0667 38.3042C33.2996 38.506 33.4082 38.7854 33.4082 39.0959V42.8837C33.4082 43.0545 33.4548 43.1787 33.5635 43.3029C33.6877 43.4271 33.8119 43.4581 33.9826 43.4581H36.7459L36.7303 43.4737Z" fill="#585858"/>
<path fill-rule="evenodd" clip-rule="evenodd" d="M13.676 47.8207L14.654 38.9721C14.7161 38.3977 15.1042 38.0562 15.6941 38.0562H18.9386C19.5751 38.0562 19.9787 38.4753 19.9787 39.1118V47.8362H20.0408C20.6773 47.8362 21.0809 48.2399 21.0809 48.8763V49.963C21.0809 50.258 20.9878 50.5374 20.7704 50.7392C20.5686 50.9255 20.3202 51.0031 20.0563 51.0031C19.7924 51.0031 19.5595 50.9255 19.3577 50.7547C19.1093 50.5529 19.0007 50.2735 19.0007 49.963V49.9164H14.5919V49.963C14.5919 50.258 14.4988 50.5374 14.2814 50.7392C14.0796 50.9255 13.8312 51.0031 13.5673 51.0031C13.3034 51.0031 13.0706 50.9255 12.8687 50.7547C12.6204 50.5529 12.5117 50.2735 12.5117 49.963V48.8763C12.5117 48.2399 12.9309 47.8362 13.5673 47.8362H13.707L13.676 47.8207ZM17.914 40.1364H16.641L15.7717 47.8207H17.914V40.1364Z" fill="#585858"/>
<path fill-rule="evenodd" clip-rule="evenodd" d="M30.8622 48.5192C30.8932 48.6278 30.9243 48.7676 30.9243 48.8917C30.9243 49.1867 30.8001 49.4506 30.5672 49.6369C30.3654 49.8077 30.1326 49.8853 29.8687 49.8853C29.7289 49.8853 29.5426 49.8542 29.4184 49.8077C29.1545 49.6835 28.9682 49.4506 28.8751 49.1712L28.2076 47.1686H24.9941C24.8389 47.6653 24.4818 48.7831 24.3266 49.1556C24.2024 49.6214 23.8298 49.8853 23.3486 49.8853C23.0847 49.8853 22.8518 49.7921 22.65 49.6214C22.4172 49.4351 22.293 49.1712 22.293 48.8762C22.293 48.7365 22.324 48.6123 22.3706 48.4881L25.6151 38.7391C25.7859 38.3044 26.0963 37.9629 26.5931 37.9629C27.0898 37.9629 27.4314 38.3044 27.5711 38.7701L30.8467 48.5192H30.8622ZM27.5245 45.0884L26.6086 42.3562L25.6927 45.0884H27.509H27.5245Z" fill="#585858"/>
<path d="M50.4231 61.1238H11.1476C9.41571 61.1238 8.01172 62.5277 8.01172 64.2596V73.248C8.01172 74.9798 9.41571 76.3838 11.1476 76.3838H50.4231C52.155 76.3838 53.559 74.9798 53.559 73.248V64.2596C53.559 62.5277 52.155 61.1238 50.4231 61.1238Z" fill="white"/>
<path d="M50.6889 62.0711C51.8998 62.0711 52.8933 63.0647 52.8933 64.2755V73.3105C52.8933 74.5213 51.8998 75.5149 50.6889 75.5149H10.8855C9.67463 75.5149 8.68113 74.5213 8.68113 73.3105V64.2755C8.68113 63.0647 9.67463 62.0711 10.8855 62.0711H50.6889ZM50.6889 60.4722H10.8855C8.78977 60.4722 7.09766 62.1643 7.09766 64.26V73.2949C7.09766 75.3907 8.78977 77.0828 10.8855 77.0828H50.6889C52.7846 77.0828 54.4767 75.3907 54.4767 73.2949V64.26C54.4767 62.1643 52.7846 60.4722 50.6889 60.4722Z" fill="#585858"/>
<path fill-rule="evenodd" clip-rule="evenodd" d="M30.3171 67.2561C30.5965 67.5355 31.0622 67.52 31.3416 67.2561L31.8074 66.7904V72.5808C31.8074 72.9844 32.1334 73.3105 32.537 73.3105C32.9406 73.3105 33.2666 72.9844 33.2666 72.5808V65.1449C33.3132 64.912 33.2356 64.6636 33.0648 64.4929C32.7854 64.2134 32.3196 64.2289 32.0402 64.4929L30.3171 66.2471C30.0376 66.5265 30.0532 66.9922 30.3171 67.2716V67.2561Z" fill="#585858"/>
<path fill-rule="evenodd" clip-rule="evenodd" d="M22.5427 70.6865C22.8222 69.7085 23.1016 68.7305 23.3811 67.7525C23.6605 66.7745 23.9554 65.781 24.2193 64.7874C24.2659 64.6322 24.3591 64.508 24.4832 64.4149C24.6074 64.3217 24.7316 64.2751 24.8869 64.2751C25.0732 64.2751 25.2439 64.3372 25.3836 64.4614C25.5388 64.6012 25.601 64.7719 25.601 64.9737C25.601 65.0358 25.601 65.0979 25.5854 65.16L24.1573 70.1742H25.4613V69.1962C25.4613 69.0099 25.5234 68.8237 25.6631 68.6839C25.8028 68.5442 25.9735 68.4821 26.1753 68.4821C26.3616 68.4821 26.5169 68.5442 26.6566 68.6684C26.8118 68.8081 26.8894 68.9944 26.8894 69.1962V70.1742H27.4328C27.6346 70.1742 27.8209 70.2363 27.9606 70.3916C28.0848 70.5313 28.1314 70.7021 28.1314 70.8883C28.1314 71.0746 28.0693 71.2299 27.9606 71.3696C27.8209 71.5248 27.6346 71.5869 27.4328 71.5869H26.8894V72.5649C26.8894 72.7667 26.8274 72.953 26.6721 73.0927C26.5324 73.2169 26.3616 73.2635 26.1753 73.2635C25.9891 73.2635 25.8183 73.2014 25.6941 73.0772C25.5389 72.9375 25.4767 72.7512 25.4767 72.5494V71.5714H23.2413C22.8377 71.5714 22.5117 71.3696 22.5117 70.9349C22.5117 70.8883 22.5117 70.8263 22.5272 70.7797C22.5272 70.7331 22.5428 70.6865 22.5583 70.6555L22.5427 70.6865Z" fill="#585858"/>
<path fill-rule="evenodd" clip-rule="evenodd" d="M45.2348 70.7176L47.2994 64.7874C47.3926 64.477 47.672 64.2751 47.998 64.2751C48.4016 64.2751 48.7277 64.6012 48.7277 65.0048V72.5649C48.7277 72.9685 48.4016 73.2946 47.998 73.2946C47.5944 73.2946 47.2684 72.9685 47.2684 72.5649V69.1031L45.9334 72.7823C45.8247 73.0927 45.5918 73.3101 45.2348 73.3101C44.8777 73.3101 44.6759 73.0927 44.5517 72.7978L43.1546 69.0876V72.5805C43.1546 72.9841 42.8286 73.3101 42.4249 73.3101C42.0213 73.3101 41.6953 72.9841 41.6953 72.5805V65.0203C41.6953 64.6167 42.0213 64.2907 42.4249 64.2907C42.7354 64.2907 43.0149 64.4925 43.108 64.803L45.2348 70.7331V70.7176Z" fill="#585858"/>
<path fill-rule="evenodd" clip-rule="evenodd" d="M38.4515 69.6462V72.5647C38.4515 72.7666 38.3894 72.9684 38.2342 73.1081C38.0945 73.2323 37.9237 73.2944 37.7374 73.2944C37.5512 73.2944 37.3804 73.2323 37.2407 73.1081C37.0854 72.9684 37.0078 72.7821 37.0078 72.5803V66.0292C37.0078 65.5634 37.1785 65.1443 37.5045 64.8183C37.8305 64.4923 38.2497 64.3215 38.7154 64.3215H40.2368C40.4386 64.3215 40.6404 64.3991 40.7801 64.5544C40.9043 64.6941 40.9664 64.8649 40.9664 65.0667C40.9664 65.2685 40.9043 65.4082 40.7801 65.5479C40.6404 65.7187 40.4386 65.7808 40.2368 65.7808H38.7154C38.6378 65.7808 38.5757 65.7963 38.5291 65.8584C38.467 65.905 38.4515 65.9671 38.4515 66.0447V68.2336H40.2368C40.4386 68.2336 40.6249 68.2957 40.7801 68.4509C40.9198 68.5906 40.9819 68.7614 40.9819 68.9632C40.9819 69.1495 40.9198 69.3047 40.7957 69.4444C40.6559 69.5997 40.4541 69.6773 40.2523 69.6773H38.4671L38.4515 69.6462Z" fill="#585858"/>
<path fill-rule="evenodd" clip-rule="evenodd" d="M13.0554 67.2561C13.3348 67.5355 13.8005 67.52 14.0799 67.2561L14.5457 66.7904V72.5808C14.5457 72.9844 14.8717 73.3105 15.2753 73.3105C15.6789 73.3105 16.0049 72.9844 16.0049 72.5808V65.1449C16.0515 64.912 15.9739 64.6636 15.8031 64.4929C15.5237 64.2134 15.058 64.2289 14.7785 64.4929L13.0554 66.2471C12.7759 66.5265 12.7914 66.9922 13.0554 67.2716V67.2561Z" fill="#585858"/>
<path fill-rule="evenodd" clip-rule="evenodd" d="M28.8894 72.0688C29.0291 71.9446 29.1999 71.8669 29.4017 71.8669C29.6035 71.8669 29.7587 71.929 29.8985 72.0688C30.0382 72.2085 30.1158 72.3792 30.1158 72.581C30.1158 72.7829 30.0537 72.9381 29.914 73.0778C29.7743 73.2175 29.6035 73.2796 29.4172 73.2796C29.2309 73.2796 29.0447 73.2175 28.9049 73.0778C28.7652 72.9381 28.7031 72.7673 28.7031 72.581C28.7031 72.3948 28.7807 72.2085 28.9204 72.0688H28.8894Z" fill="#585858"/>
<path fill-rule="evenodd" clip-rule="evenodd" d="M21.8868 67.2402V66.2777C21.8868 65.7344 21.685 65.2686 21.3124 64.8805C20.9243 64.4924 20.4586 64.3062 19.9153 64.3062H19.077C18.5337 64.3062 18.0524 64.4924 17.6798 64.8805C17.2917 65.2686 17.1055 65.7344 17.1055 66.2777V71.323C17.1055 71.8663 17.3073 72.332 17.6798 72.7201C18.0679 73.1082 18.5337 73.2945 19.077 73.2945H19.9153C20.4586 73.2945 20.9243 73.1082 21.3124 72.7201C21.7005 72.332 21.8868 71.8663 21.8868 71.323V67.2402ZM18.5026 67.2402V66.2777C18.5026 66.1225 18.5492 65.9983 18.6579 65.8896C18.7665 65.7809 18.9063 65.7344 19.0615 65.7344H19.8998C20.055 65.7344 20.1792 65.7809 20.2879 65.8896C20.3965 65.9983 20.4431 66.1225 20.4431 66.2777V71.323C20.4431 71.4782 20.3965 71.6024 20.2879 71.7111C20.1792 71.8197 20.055 71.8663 19.8998 71.8663H19.0615C18.9063 71.8663 18.7665 71.8197 18.6579 71.7111C18.5492 71.6024 18.5026 71.4782 18.5026 71.323V67.2402Z" fill="#585858"/>
</svg>
